<?xml version="1.0" encoding="utf-8"?>
<!-- Generator: Adobe Illustrator 16.0.0, SVG Export Plug-In . SVG Version: 6.00 Build 0)  -->
<!DOCTYPE svg PUBLIC "-//W3C//DTD SVG 1.1//EN" "http://www.w3.org/Graphics/SVG/1.1/DTD/svg11.dtd">
<svg version="1.1" xmlns="http://www.w3.org/2000/svg" xmlns:xlink="http://www.w3.org/1999/xlink" x="0px" y="0px"  viewBox="0 0 1321 763"  xml:space="preserve" >
  
  <defs>
  <style type="text/css">
   <![CDATA[
   @font-face {
	font-family: 'gothicB';
	src: url('../../fonts/gothicB.eot');
	src: url('../../fonts/gothicB.ttf') format('truetype');
}

   ]]>
 </style>
</defs>
  
<g id="Layer_1">
</g>
<g id="Layer_2">
	<g id="F13">
		<text transform="matrix(1 0 0 1 24.6558 683.3691)" fill="#FFFFFF" font-family="'century gothic'" font-size="18.0325">a. Rosti G et al. Nilotinib for the frontline treatment of Ph(+) chronic myeloid leukemia. <tspan font-style="italic">Blood</tspan>.2009 Dec 3;114(24):4933-8.S</text>
		<text transform="matrix(1 0 0 1 24.6558 705.0098)" fill="#FFFFFF" font-family="'century gothic'" font-size="18.0325">b. Piccaluga PP et al. First-line treatment of chronic myeloid leukemia with nilotinib: critical evaluation. <tspan font-style="italic">J Blood Med</tspan>.2012;3:151-6.</text>
		<text transform="matrix(1 0 0 1 24.6558 726.6465)" fill="#FFFFFF" font-family="'century gothic'" font-size="18.0325">c. Cortes JE, et al. Nilotinib as front-line treatment for patients with chronic myeloid leukemia in early chronic phase. <tspan font-style="italic">J Clin Oncol</tspan>. 2010;28(3):392-397.</text>
		<g>
			<rect x="9.903" y="159.213" fill="#4A286E" width="155.118" height="64.109"/>
			<rect x="9.903" y="159.213" fill="none" stroke="#FFFFFF" stroke-miterlimit="10" width="155.118" height="64.109"/>
			<rect x="9.903" y="223.323" fill="#4A286E" width="155.118" height="64.109"/>
			<rect x="9.903" y="223.323" fill="none" stroke="#FFFFFF" stroke-miterlimit="10" width="155.118" height="64.109"/>
			<rect x="9.903" y="287.432" fill="#4A286E" width="155.118" height="64.111"/>
			<rect x="9.903" y="287.432" fill="none" stroke="#FFFFFF" stroke-miterlimit="10" width="155.118" height="64.111"/>
			<rect x="9.903" y="351.535" fill="#4A286E" width="155.118" height="64.111"/>
			<rect x="9.903" y="351.535" fill="none" stroke="#FFFFFF" stroke-miterlimit="10" width="155.118" height="64.111"/>
			<rect x="9.903" y="415.646" fill="#4A286E" width="155.118" height="64.109"/>
			<rect x="9.903" y="415.646" fill="none" stroke="#FFFFFF" stroke-miterlimit="10" width="155.118" height="64.109"/>
			<rect x="165.021" y="159.213" fill="#E5E5E5" width="243.193" height="64.109"/>
			<rect x="165.021" y="159.213" fill="none" stroke="#FFFFFF" stroke-miterlimit="10" width="243.193" height="64.109"/>
			<rect x="165.021" y="223.323" fill="#E5E5E5" width="243.193" height="64.109"/>
			<rect x="165.021" y="223.323" fill="none" stroke="#FFFFFF" stroke-miterlimit="10" width="243.193" height="64.109"/>
			<rect x="165.021" y="287.432" fill="#E5E5E5" width="243.193" height="64.111"/>
			<rect x="165.021" y="287.432" fill="none" stroke="#FFFFFF" stroke-miterlimit="10" width="243.193" height="64.111"/>
			<rect x="165.021" y="351.535" fill="#E5E5E5" width="243.193" height="64.111"/>
			<rect x="165.021" y="351.535" fill="none" stroke="#FFFFFF" stroke-miterlimit="10" width="243.193" height="64.111"/>
			<rect x="165.021" y="415.646" fill="#E5E5E5" width="243.193" height="64.109"/>
			<rect x="165.021" y="415.646" fill="none" stroke="#FFFFFF" stroke-miterlimit="10" width="243.193" height="64.109"/>
			<rect x="805.696" y="159.213" fill="#E5E5E5" width="125.646" height="64.109"/>
			<rect x="805.696" y="159.213" fill="none" stroke="#FFFFFF" stroke-miterlimit="10" width="125.646" height="64.109"/>
			<rect x="805.696" y="223.323" fill="#E5E5E5" width="125.646" height="64.109"/>
			<rect x="805.696" y="223.323" fill="none" stroke="#FFFFFF" stroke-miterlimit="10" width="125.646" height="64.109"/>
			<rect x="805.696" y="287.432" fill="#E5E5E5" width="125.646" height="64.111"/>
			<rect x="805.696" y="287.432" fill="none" stroke="#FFFFFF" stroke-miterlimit="10" width="125.646" height="64.111"/>
			<rect x="805.696" y="351.535" fill="#E5E5E5" width="125.646" height="64.111"/>
			<rect x="805.696" y="351.535" fill="none" stroke="#FFFFFF" stroke-miterlimit="10" width="125.646" height="64.111"/>
			<rect x="805.696" y="415.646" fill="#E5E5E5" width="125.646" height="64.109"/>
			<rect x="805.696" y="415.646" fill="none" stroke="#FFFFFF" stroke-miterlimit="10" width="125.646" height="64.109"/>
			<rect x="931.343" y="159.213" fill="#E5E5E5" width="125.648" height="64.109"/>
			<rect x="931.343" y="159.213" fill="none" stroke="#FFFFFF" stroke-miterlimit="10" width="125.648" height="64.109"/>
			<rect x="931.343" y="223.323" fill="#E5E5E5" width="125.648" height="64.109"/>
			<rect x="931.343" y="223.323" fill="none" stroke="#FFFFFF" stroke-miterlimit="10" width="125.648" height="64.109"/>
			<rect x="931.343" y="287.432" fill="#E5E5E5" width="125.648" height="64.111"/>
			<rect x="931.343" y="287.432" fill="none" stroke="#FFFFFF" stroke-miterlimit="10" width="125.648" height="64.111"/>
			<rect x="931.343" y="351.535" fill="#E5E5E5" width="125.648" height="64.111"/>
			<rect x="931.343" y="351.535" fill="none" stroke="#FFFFFF" stroke-miterlimit="10" width="125.648" height="64.111"/>
			<rect x="931.343" y="415.646" fill="#E5E5E5" width="125.648" height="64.109"/>
			<rect x="931.343" y="415.646" fill="none" stroke="#FFFFFF" stroke-miterlimit="10" width="125.648" height="64.109"/>
			<rect x="1056.991" y="159.213" fill="#E5E5E5" width="125.646" height="64.109"/>
			<rect x="1056.991" y="159.213" fill="none" stroke="#FFFFFF" stroke-miterlimit="10" width="125.646" height="64.109"/>
			<rect x="1056.991" y="223.323" fill="#E5E5E5" width="125.646" height="64.109"/>
			<rect x="1056.991" y="223.323" fill="none" stroke="#FFFFFF" stroke-miterlimit="10" width="125.646" height="64.109"/>
			<rect x="1056.991" y="287.432" fill="#E5E5E5" width="125.646" height="64.111"/>
			<rect x="1056.991" y="287.432" fill="none" stroke="#FFFFFF" stroke-miterlimit="10" width="125.646" height="64.111"/>
			<rect x="1056.991" y="351.535" fill="#E5E5E5" width="125.646" height="64.111"/>
			<rect x="1056.991" y="351.535" fill="none" stroke="#FFFFFF" stroke-miterlimit="10" width="125.646" height="64.111"/>
			<rect x="1056.991" y="415.646" fill="#E5E5E5" width="125.646" height="64.109"/>
			<rect x="1056.991" y="415.646" fill="none" stroke="#FFFFFF" stroke-miterlimit="10" width="125.646" height="64.109"/>
			<rect x="1182.638" y="159.213" fill="#E5E5E5" width="125.648" height="64.109"/>
			<rect x="1182.638" y="156.213" fill="none" stroke="#FFFFFF" stroke-miterlimit="10" width="125.648" height="67.109"/>
			<rect x="805.696" y="95.105" fill="#E5E5E5" width="125.646" height="64.108"/>
			<rect x="805.696" y="95.105" fill="none" stroke="#FFFFFF" stroke-miterlimit="10" width="125.646" height="64.108"/>
			<rect x="931.343" y="95.105" fill="#E5E5E5" width="125.648" height="64.108"/>
			<rect x="931.343" y="95.105" fill="none" stroke="#FFFFFF" stroke-miterlimit="10" width="125.648" height="64.108"/>
			<rect x="1056.991" y="95.105" fill="#E5E5E5" width="125.646" height="64.108"/>
			<rect x="1056.991" y="95.105" fill="none" stroke="#FFFFFF" stroke-miterlimit="10" width="125.646" height="64.108"/>
			<rect x="1182.638" y="95.615" fill="#E5E5E5" width="125.648" height="64.108"/>
			<rect x="1182.638" y="92.615" fill="none" stroke="#FFFFFF" stroke-miterlimit="10" width="125.648" height="65.108"/>
			<rect x="1182.638" y="223.323" fill="#E5E5E5" width="125.648" height="64.109"/>
			<rect x="1182.638" y="223.323" fill="none" stroke="#FFFFFF" stroke-miterlimit="10" width="125.648" height="64.109"/>
			<rect x="1182.638" y="287.432" fill="#E5E5E5" width="125.648" height="64.111"/>
			<rect x="1182.638" y="287.432" fill="none" stroke="#FFFFFF" stroke-miterlimit="10" width="125.648" height="64.111"/>
			<rect x="1182.638" y="351.535" fill="#E5E5E5" width="125.648" height="64.111"/>
			<rect x="1182.638" y="351.535" fill="none" stroke="#FFFFFF" stroke-miterlimit="10" width="125.648" height="64.111"/>
			<rect x="1182.638" y="415.646" fill="#E5E5E5" width="125.648" height="64.109"/>
			<rect x="1182.638" y="415.646" fill="none" stroke="#FFFFFF" stroke-miterlimit="10" width="125.648" height="64.109"/>
			<rect x="805.696" y="30.998" fill="#4A286E" width="251.295" height="64.11"/>
			<rect x="805.696" y="30.998" fill="none" stroke="#FFFFFF" stroke-miterlimit="10" width="251.295" height="64.11"/>
			<rect x="1056.991" y="30.998" fill="#4A286E" width="251.295" height="64.11"/>
			<rect x="1056.991" y="30.998" fill="none" stroke="#FFFFFF" stroke-miterlimit="10" width="251.295" height="64.11"/>
			<rect x="408.215" y="159.213" fill="#E5E5E5" width="397.481" height="64.109"/>
			<rect x="408.215" y="159.213" fill="none" stroke="#FFFFFF" stroke-miterlimit="10" width="397.481" height="64.109"/>
			<rect x="408.215" y="223.323" fill="#E5E5E5" width="397.481" height="64.109"/>
			<rect x="408.215" y="223.323" fill="none" stroke="#FFFFFF" stroke-miterlimit="10" width="397.481" height="64.109"/>
			<rect x="408.215" y="287.432" fill="#E5E5E5" width="397.481" height="64.111"/>
			<rect x="408.215" y="287.432" fill="none" stroke="#FFFFFF" stroke-miterlimit="10" width="397.481" height="64.111"/>
			<rect x="408.215" y="351.535" fill="#E5E5E5" width="397.481" height="64.111"/>
			<rect x="408.215" y="351.535" fill="none" stroke="#FFFFFF" stroke-miterlimit="10" width="397.481" height="64.111"/>
			<rect x="408.215" y="415.646" fill="#E5E5E5" width="397.481" height="64.109"/>
			<rect x="408.215" y="415.646" fill="none" stroke="#FFFFFF" stroke-miterlimit="10" width="397.481" height="64.109"/>
			<rect x="9.903" y="30.995" fill="#4A286E" width="155.118" height="128.218"/>
			<rect x="9.903" y="30.995" fill="none" stroke="#FFFFFF" stroke-miterlimit="10" width="155.118" height="128.218"/>
			<rect x="165.021" y="30.995" fill="#4A286E" width="243.193" height="128.218"/>
			<rect x="165.021" y="30.995" fill="none" stroke="#FFFFFF" stroke-miterlimit="10" width="243.193" height="128.218"/>
			<rect x="408.218" y="30.995" fill="#4A286E" width="397.479" height="128.218"/>
			<rect x="408.218" y="30.995" fill="none" stroke="#FFFFFF" stroke-miterlimit="10" width="397.479" height="128.218"/>
		</g>
		<text transform="matrix(1 0 0 1 26.4121 106.7324)" fill="#FFFFFF" font-family="'gothicB'" font-size="42.0979">Phase</text>
		<text transform="matrix(1 0 0 1 173.376 106.7324)" fill="#FFFFFF" font-family="'gothicB'" font-size="42.0979">Patients (n)</text>
		<text transform="matrix(1 0 0 1 556.0029 106.7324)" fill="#FFFFFF" font-family="'gothicB'" font-size="42.0979">Dose</text>
		<text transform="matrix(1 0 0 1 75.666 202.8838)" fill="#FFFFFF" font-family="'gothicB'" font-size="42.0979">II</text>
		<text transform="matrix(1 0 0 1 75.666 267)" fill="#FFFFFF" font-family="'gothicB'" font-size="42.0979">II</text>
		<text transform="matrix(1 0 0 1 69.7744 331.1133)" fill="#FFFFFF" font-family="'gothicB'" font-size="42.0979">III</text>
		<text transform="matrix(1 0 0 1 266.623 201.2354)" fill="#282828" font-family="'century gothic'" font-size="36.0839">73</text>
		<text transform="matrix(1 0 0 1 266.623 265.3564)" fill="#282828" font-family="'century gothic'" font-size="36.0839">51</text>
		<text transform="matrix(1 0 0 1 256.626 329.4775)" font-family="'century gothic'" font-size="36.0839">846</text>
		<text transform="matrix(1 0 0 1 542.917 201.2725)" font-family="'century gothic'" font-size="36.0839">400 mg*</text>
		<text transform="matrix(1 0 0 1 542.917 265.3926)" font-family="'century gothic'" font-size="36.0839">400 mg*</text>
		<text transform="matrix(1 0 0 1 420.6641 329.5137)" font-family="'century gothic'" font-size="36.0839">300 mg (NB)* (n = 282)</text>
		<text transform="matrix(1 0 0 1 420.6641 393.6338)" font-family="'century gothic'" font-size="36.0839">400 mg (NB)* (n = 281)</text>
		<text transform="matrix(1 0 0 1 429.9395 457.7568)" font-family="'century gothic'" font-size="36.0839">400 mg (IB) (n = 283)</text>
		<text transform="matrix(1 0 0 1 814.8105 137.2227)" font-family="'century gothic'" font-size="36.0839">12 mo</text>
		<text transform="matrix(1 0 0 1 1066.0938 137.2227)" font-family="'century gothic'" font-size="36.0839">12 mo</text>
		<text transform="matrix(1 0 0 1 940.4551 137.2227)" font-family="'century gothic'" font-size="36.0839">24 mo</text>
		<text transform="matrix(1 0 0 1 1191.7402 134.7314)" font-family="'century gothic'" font-size="36.0839">24 mo</text>
		<text transform="matrix(1 0 0 1 834.1172 74.6787)" fill="#FFFFFF" font-family="'gothicB'" font-size="42.0979">CCyR (%)</text>
		<text transform="matrix(1 0 0 1 1092.5527 74.6787)" fill="#FFFFFF" font-family="'gothicB'" font-size="42.0979">MMR (%)</text>
		<text transform="matrix(1 0 0 1 848.5234 201.2334)" font-family="'century gothic'" font-size="36.0839">96</text>
		<text transform="matrix(1 0 0 1 888.5195 189.2178)" font-family="'century gothic'" font-size="21.0369">a</text>
		<text transform="matrix(1 0 0 1 974.1738 201.2334)" font-family="'century gothic'" font-size="36.0839">96</text>
		<text transform="matrix(1 0 0 1 1014.168 189.2178)" font-family="'century gothic'" font-size="21.0369">b</text>
		<text transform="matrix(1 0 0 1 1099.8184 201.2334)" font-family="'century gothic'" font-size="36.0839">85</text>
		<text transform="matrix(1 0 0 1 1139.8125 189.2178)" font-family="'century gothic'" font-size="21.0369">a</text>
		<text transform="matrix(1 0 0 1 1225.4668 201.2334)" font-family="'century gothic'" font-size="36.0839">85</text>
		<text transform="matrix(1 0 0 1 1265.4609 189.2178)" font-family="'century gothic'" font-size="21.0369">b</text>
		<text transform="matrix(1 0 0 1 848.5234 265.3438)" font-family="'century gothic'" font-size="36.0839">97</text>
		<text transform="matrix(1 0 0 1 888.5195 253.3291)" font-family="'century gothic'" font-size="21.0369">c</text>
		<text transform="matrix(1 0 0 1 974.1738 265.3438)" font-family="'century gothic'" font-size="36.0839">93</text>
		<text transform="matrix(1 0 0 1 1014.168 253.3291)" font-family="'century gothic'" font-size="21.0369">b</text>
		<text transform="matrix(1 0 0 1 1099.8184 265.3418)" font-family="'century gothic'" font-size="36.0839">81</text>
		<text transform="matrix(1 0 0 1 1139.8125 253.3242)" font-family="'century gothic'" font-size="21.0369">c</text>
		<text transform="matrix(1 0 0 1 1225.4668 265.3438)" font-family="'century gothic'" font-size="36.0839">79</text>
		<text transform="matrix(1 0 0 1 1265.4609 253.3291)" font-family="'century gothic'" font-size="21.0369">b</text>
		<text transform="matrix(1 0 0 1 848.5234 329.4502)" font-family="'century gothic'" font-size="36.0839">80</text>
		<text transform="matrix(1 0 0 1 888.5195 317.4346)" font-family="'century gothic'" font-size="21.0369">b</text>
		<text transform="matrix(1 0 0 1 974.1738 329.4502)" font-family="'century gothic'" font-size="36.0839">87</text>
		<text transform="matrix(1 0 0 1 1014.168 317.4346)" font-family="'century gothic'" font-size="21.0369">b</text>
		<text transform="matrix(1 0 0 1 1099.8184 329.4502)" font-family="'century gothic'" font-size="36.0839">44</text>
		<text transform="matrix(1 0 0 1 1139.8125 317.4346)" font-family="'century gothic'" font-size="21.0369">b</text>
		<text transform="matrix(1 0 0 1 1225.4668 329.4502)" font-family="'century gothic'" font-size="36.0839">71</text>
		<text transform="matrix(1 0 0 1 1265.4609 317.4346)" font-family="'century gothic'" font-size="21.0369">b</text>
		<text transform="matrix(1 0 0 1 848.5234 393.5586)" font-family="'century gothic'" font-size="36.0839">78</text>
		<text transform="matrix(1 0 0 1 888.5195 381.541)" font-family="'century gothic'" font-size="21.0369">b</text>
		<text transform="matrix(1 0 0 1 974.1738 393.5586)" font-family="'century gothic'" font-size="36.0839">85</text>
		<text transform="matrix(1 0 0 1 1014.168 381.541)" font-family="'century gothic'" font-size="21.0369">b</text>
		<text transform="matrix(1 0 0 1 1099.8184 393.5586)" font-family="'century gothic'" font-size="36.0839">43</text>
		<text transform="matrix(1 0 0 1 1139.8125 381.541)" font-family="'century gothic'" font-size="21.0369">b</text>
		<text transform="matrix(1 0 0 1 1225.4668 393.5586)" font-family="'century gothic'" font-size="36.0839">67</text>
		<text transform="matrix(1 0 0 1 1265.4609 381.541)" font-family="'century gothic'" font-size="21.0369">b</text>
		<text transform="matrix(1 0 0 1 848.5234 457.666)" font-family="'century gothic'" font-size="36.0839">65</text>
		<text transform="matrix(1 0 0 1 888.5195 445.6514)" font-family="'century gothic'" font-size="21.0369">b</text>
		<text transform="matrix(1 0 0 1 974.1738 457.666)" font-family="'century gothic'" font-size="36.0839">77</text>
		<text transform="matrix(1 0 0 1 1014.168 445.6514)" font-family="'century gothic'" font-size="21.0369">b</text>
		<text transform="matrix(1 0 0 1 1099.8184 457.666)" font-family="'century gothic'" font-size="36.0839">22</text>
		<text transform="matrix(1 0 0 1 1139.8125 445.6514)" font-family="'century gothic'" font-size="21.0369">b</text>
		<text transform="matrix(1 0 0 1 1225.4668 457.666)" font-family="'century gothic'" font-size="36.0839">44</text>
		<text transform="matrix(1 0 0 1 1265.4609 445.6514)" font-family="'century gothic'" font-size="21.0369">b</text>
		<text transform="matrix(1 0 0 1 16.0464 524.2109)" fill="#FFFFFF" font-family="'century gothic'" font-size="33.7815">* Twice daily; NB, Nilotinib; IB, Imatinib; CCyR, complete cytogenetic response;</text>
		<text transform="matrix(1 0 0 1 38.0464 564.749)" fill="#FFFFFF" font-family="'century gothic'" font-size="33.7815">MMR, major molecular response</text>
		<line fill="none" stroke="#FFFFFF" stroke-miterlimit="10" x1="1307.638" y1="159.213" x2="1181.991" y2="159.213"/>
	</g>
</g>
</svg>
