<?xml version="1.0" encoding="utf-8"?>
<!-- Generator: Adobe Illustrator 16.0.0, SVG Export Plug-In . SVG Version: 6.00 Build 0)  -->
<!DOCTYPE svg PUBLIC "-//W3C//DTD SVG 1.1//EN" "http://www.w3.org/Graphics/SVG/1.1/DTD/svg11.dtd">
<svg version="1.1" xmlns="http://www.w3.org/2000/svg" xmlns:xlink="http://www.w3.org/1999/xlink" x="0px" y="0px"  viewBox="0 0 1321 770"  xml:space="preserve" >
<g id="Layer_1">
</g>
<g id="Layer_2">
	<g id="F19">
		
			<text transform="matrix(1.0046 0 0 1 918.2129 128.4004)" display="none" fill="#FFFFFF" font-family="century gothic" font-size="33.6871">MMR (%)</text>
		<text transform="matrix(1.0046 0 0 1 16.874 606.6133)"><tspan x="0" y="0" fill="#FFFFFF" font-family="century gothic" font-size="28.8747">Molecular response should be assessed every 3 months until MMR is achieved, and</tspan><tspan x="0" y="34.648" fill="#FFFFFF" font-family="century gothic" font-size="28.8747">every 3 to 6 months thereafter.</tspan></text>
		<text transform="matrix(1.0046 0 0 1 16.8721 726.9219)"><tspan x="0" y="0" fill="#FFFFFF" font-family="century gothic" font-size="19.226">Baccarani M, Deininger MW, Rosti G, et al. European LeukemiaNet recommendations for the management of chronic myeloid leukemia: </tspan><tspan x="0" y="20.213" fill="#FFFFFF" font-family="century gothic" font-size="19.226">2013. Blood 2013;122(6):872-84. doi:10.1182/blood-2013-05-501569.</tspan></text>
		<rect x="9.669" y="62.304" fill="#E5E5E5" width="398.894" height="66.095"/>
		<rect x="9.669" y="11.005" fill="#4A286E" width="398.894" height="51.3"/>
		<text transform="matrix(1.0046 0 0 1 33.9438 103.1509)" font-family="century gothic" font-size="33.6871">At diagnosis</text>
		<rect x="413.398" y="62.304" fill="#E5E5E5" width="899.254" height="66.095"/>
		<rect x="413.398" y="11.005" fill="#4A286E" width="899.254" height="51.3"/>
		<text transform="matrix(1.0046 0 0 1 439.9082 105.5571)" font-family="century gothic" font-size="33.6871">Qualitative PCR (identification of transcript type)</text>
		<text transform="matrix(1.0046 0 0 1 439.9082 48.3569)" fill="#FFFFFF" font-family="century gothic" font-size="33.6871">Recommendation</text>
		<rect x="9.669" y="134.49" fill="#E5E5E5" width="398.894" height="207.083"/>
		<rect x="413.398" y="134.49" fill="#E5E5E5" width="899.254" height="207.083"/>
		<text transform="matrix(1.0046 0 0 1 33.9438 180.1494)" font-family="century gothic" font-size="33.6871">During treatment</text>
		<text transform="matrix(1.0046 0 0 1 439.9229 182.5415)" font-family="century gothic" font-size="33.6871">RQ - PCR (for the determination of BCR-ABL1</text>
		<text transform="matrix(1.0046 0 0 1 439.9229 222.9653)" font-family="century gothic" font-size="33.6871">transcript level on the IS) to be performed every</text>
		<text transform="matrix(1.0046 0 0 1 439.9229 263.3916)" font-family="century gothic" font-size="33.6871">3 months until MMR is achieved, then every</text>
		<text transform="matrix(1.0046 0 0 1 439.9229 303.8145)" font-family="century gothic" font-size="33.6871">3 to 6 months</text>
		<rect x="9.669" y="348.645" fill="#E5E5E5" width="398.894" height="66.094"/>
		<rect x="413.398" y="348.645" fill="#E5E5E5" width="899.254" height="66.094"/>
		<text transform="matrix(1.0046 0 0 1 33.9438 389.4941)" font-family="century gothic" font-size="33.6871">Failure, progression</text>
		<text transform="matrix(1.0046 0 0 1 439.9229 391.8818)" font-family="century gothic" font-size="33.6871">RQ - PCR mutational analysis</text>
		<rect x="9.669" y="423.238" fill="#E5E5E5" width="398.894" height="66.094"/>
		<rect x="413.398" y="423.238" fill="#E5E5E5" width="899.254" height="66.094"/>
		<text transform="matrix(1.0046 0 0 1 33.9438 464.084)" font-family="century gothic" font-size="33.6871">Warning</text>
		<text transform="matrix(1.0046 0 0 1 439.9229 466.4766)" font-family="century gothic" font-size="33.6871">Molecular tests to be performed more frequently</text>
	</g>
</g>
</svg>
