<?xml version="1.0" encoding="utf-8"?>
<!-- Generator: Adobe Illustrator 16.0.0, SVG Export Plug-In . SVG Version: 6.00 Build 0)  -->
<!DOCTYPE svg PUBLIC "-//W3C//DTD SVG 1.1//EN" "http://www.w3.org/Graphics/SVG/1.1/DTD/svg11.dtd">
<svg version="1.1" xmlns="http://www.w3.org/2000/svg" xmlns:xlink="http://www.w3.org/1999/xlink" x="0px" y="0px" viewBox="0 0 1321 968" xml:space="preserve">
<g id="Layer_1">
</g>
<g id="Layer_2">
	<g id="F21_x5F_B">
		<g>
			<line fill="#FFFFFF" stroke="#FFFFFF" stroke-miterlimit="10" x1="291.813" y1="758.786" x2="1190.623" y2="758.786"/>
			<line fill="#FFFFFF" stroke="#FFFFFF" stroke-miterlimit="10" x1="291.813" y1="758.786" x2="1190.623" y2="758.786"/>
			
				<line fill="#FFFFFF" stroke="#FFFFFF" stroke-miterlimit="10" stroke-dasharray="3,1" x1="1174.957" y1="758.786" x2="1174.957" y2="79"/>
			
				<line fill="#FFFFFF" stroke="#FFFFFF" stroke-miterlimit="10" stroke-dasharray="3,1" x1="958.473" y1="758.786" x2="958.473" y2="80.016"/>
			
				<line fill="#FFFFFF" stroke="#FFFFFF" stroke-miterlimit="10" stroke-dasharray="3,1" x1="737.773" y1="758.786" x2="737.773" y2="82.251"/>
			<path fill="none" stroke="#FFFFFF" stroke-width="1.5" stroke-miterlimit="10" stroke-dasharray="4,2" d="M390.906,758.786
				c0,0,20.739-7.009,23.007-9.28c2.273-2.269,23.616-5.45,75.388-5.45c9.08,0,9.686-10.594,23.007-13.622
				c5.298-5.297-0.91-38.484,48.741-38.484c11.808,0,55.101,12.449,70.238-29.634c2.423-6.658-1.803-21.494,54.655-18.772
				c5.591,0,41.62,4.847,54.335-28.455c7.572-4.242,4.844-12.716,87.496-16.956c4.537-1.211,9.688-3.332,9.688-3.332l5.75-6.354
				c0,0,19.379-21.193,50.26-16.351h6.658l74.176-32.696l78.711-6.66c0,0,17.564-9.083,29.066-13.926
				c13.32,0,65.088-5.149,65.088-5.149l29.367-9.688"/>
			<path fill="none" stroke="#FFFFFF" stroke-width="1.5" stroke-miterlimit="10" stroke-dasharray="2,2" d="M398.778,758.786l8.474-17.455
				l5.148-11.502c0,0,3.935-19.68,33.606-14.229c9.384,0.304,35.724,2.422,48.137-4.54c4.844-6.661,5.448-15.514,15.138-19.11
				c2.118-6.927,11.808-25.698,9.688-55.065c1.512-4.54-2.726-40.872,63.578-30.577c4.541,0.607,39.659,0.303,48.137-52.072
				c3.027-4.847,9.384-25.433,65.697-19.073c6.358-1.514,30.882,3.635,47.226-39.056c0,0,11.508-15.44,60.248-15.44
				c11.207,1.211,35.729-2.12,54.494-26.034c21.193-1.516,53.889-1.818,53.889-1.818s7.271-13.616,38.752-17.253
				c22.406-10.296,46.625-17.866,95.67-12.416c0,0,20.893-12.11,45.717-14.533c16.045-3.633,35.121-10.898,69.023-8.475
				c11.203-7.872,13.564-9.386,13.564-9.386"/>
			<path fill="none" stroke="#FFFFFF" stroke-width="1.5" stroke-miterlimit="10" d="M388.483,756.17c0,0,10.295,0,13.322-35.728
				c0-10.29,5.147-21.497,5.147-32.395c0-10.896,4.842-38.448,4.238-63.88c1.814-26.036,1.814-36.632,6.056-47.834
				c4.238-11.202,3.933-17.257,24.22-20.283c20.282-3.028,36.328,0,36.328,0l8.175-1.345c0,0,15.744-5.016,15.744-16.518
				c4.539-11.506,7.265-13.623,7.265-13.623l13.018-98.092c0,0,5.75-43.9,24.523-46.623c20.588,1.513,41.173-1.817,65.393-6.963
				c0,0,8.479,5.448,14.229-19.375c13.021-22.403,16.349-23.917,16.349-23.917l2.422-6.66c0,0,68.721-4.242,76.594-9.084
				c7.871-4.845,24.527-26.944,24.527-26.944l2.723-4.239l82.348-6.663l28.158-21.189l44.197-2.725
				c0,0,70.539-19.982,150.465-18.166c19.379-5.45,44.203-9.385,44.203-9.385h62.666l14.164-6.963"/>
		</g>
		
			<text transform="matrix(1 0 0 1 601.0181 848.8496)" fill="#FFFFFF"  font-family="century gothic" font-size="29.2448">Time Since Study Entry, Months</text>
		
			<text transform="matrix(0 -1 1 0 204.3726 617.6855)" fill="#FFFFFF"  font-family="century gothic" font-size="29.2448">Cumulative Incidence of Response, %</text>
		
			<text transform="matrix(1 0 0 1 559.4604 119.0186)" fill="#FFFFFF"  font-family="century gothic" font-size="29.2448" x="-20">By 12 months</text>
		
			<text transform="matrix(1 0 0 1 778.9727 119.0186)" fill="#FFFFFF"  font-family="century gothic" font-size="29.2448" x="-20">By 18 months</text>
		
			<text transform="matrix(1 0 0 1 995.502 119.0186)" fill="#FFFFFF"  font-family="century gothic" font-size="29.2448" x="-20">By 24 months</text>
		
			<text transform="matrix(1 0 0 1 291.812 800.7744)" fill="#FFFFFF"  font-family="century gothic" font-size="29.2448">0</text>
		
			<text transform="matrix(1 0 0 1 403.1768 800.7744)" fill="#FFFFFF"  font-family="century gothic" font-size="29.2448">3</text>
		
			<text transform="matrix(1 0 0 1 511.8784 800.7744)" fill="#FFFFFF"  font-family="century gothic" font-size="29.2448">6</text>
		
			<text transform="matrix(1 0 0 1 620.2896 800.7744)" fill="#FFFFFF"  font-family="century gothic" font-size="29.2448">9</text>
		
			<text transform="matrix(1 0 0 1 722.4395 800.7744)" fill="#FFFFFF"  font-family="century gothic" font-size="29.2448">12</text>
		
			<text transform="matrix(1 0 0 1 834.3906 800.7744)" fill="#FFFFFF"  font-family="century gothic" font-size="29.2448">15</text>
		
			<text transform="matrix(1 0 0 1 943.9727 800.7744)" fill="#FFFFFF"  font-family="century gothic" font-size="29.2448">18</text>
		
			<text transform="matrix(1 0 0 1 1050.3027 800.7744)" fill="#FFFFFF"  font-family="century gothic" font-size="29.2448">21</text>
		
			<text transform="matrix(1 0 0 1 1160.498 800.7744)" fill="#FFFFFF"  font-family="century gothic" font-size="29.2448">24</text>
		
			<text transform="matrix(1 0 0 1 262.1284 767.7266)" fill="#FFFFFF"  font-family="century gothic" font-size="29.2448">0</text>
		
			<text transform="matrix(1 0 0 1 247.126 700.9629)" fill="#FFFFFF"  font-family="century gothic" font-size="29.2448">10</text>
		
			<text transform="matrix(1 0 0 1 247.126 635.9805)" fill="#FFFFFF"  font-family="century gothic" font-size="29.2448">20</text>
		
			<text transform="matrix(1 0 0 1 247.126 567.7217)" fill="#FFFFFF"  font-family="century gothic" font-size="29.2448">30</text>
		
			<text transform="matrix(1 0 0 1 247.126 499.582)" fill="#FFFFFF"  font-family="century gothic" font-size="29.2448">40</text>
		
			<text transform="matrix(1 0 0 1 247.126 436.2383)" fill="#FFFFFF"  font-family="century gothic" font-size="29.2448">50</text>
		
			<text transform="matrix(1 0 0 1 247.126 366.7217)" fill="#FFFFFF"  font-family="century gothic" font-size="29.2448">60</text>
		
			<text transform="matrix(1 0 0 1 247.126 301.5942)" fill="#FFFFFF"  font-family="century gothic" font-size="29.2448">70</text>
		
			<text transform="matrix(1 0 0 1 247.126 235.9702)" fill="#FFFFFF"  font-family="century gothic" font-size="29.2448">80</text>
		
			<text transform="matrix(1 0 0 1 247.126 166.6885)" fill="#FFFFFF"  font-family="century gothic" font-size="29.2448">90</text>
		
			<text transform="matrix(1 0 0 1 232.1221 101.8228)" fill="#FFFFFF"  font-family="century gothic" font-size="29.2448">100</text>
		
			<text transform="matrix(1 0 0 1 1088.4727 171.8057)" fill="#FFFFFF"  font-family="century gothic" font-size="29.2448" x="-20">80.4%</text>
		
			<text transform="matrix(1 0 0 1 988.6582 206.9014)" fill="#FFFFFF"  font-family="century gothic" font-size="29.2448" x="-20">(78.0%-82.8%)</text>
		
			<text transform="matrix(1 0 0 1 869.7754 186.75)" fill="#FFFFFF"  font-family="century gothic" font-size="29.2448" x="-20">77.2%</text>
		
			<text transform="matrix(1 0 0 1 769.9629 221.8438)" fill="#FFFFFF"  font-family="century gothic" font-size="29.2448" x="-20">(74.7%-79.7%)</text>
		
			<text transform="matrix(1 0 0 1 650.2627 257.23)" fill="#FFFFFF"  font-family="century gothic" font-size="29.2448" x="-20">68.9%</text>
		
			<text transform="matrix(1 0 0 1 550.4507 292.3228)" fill="#FFFFFF"  font-family="century gothic" font-size="29.2448" x="-20">(66.1%-71.7%)</text>
		
			<text transform="matrix(1 0 0 1 650.2627 470.3374)" fill="#FFFFFF"  font-family="century gothic" font-size="29.2448" x="-20">37.1%</text>
		
			<text transform="matrix(1 0 0 1 550.4507 505.4297)" fill="#FFFFFF"  font-family="century gothic" font-size="29.2448" x="-20">(34.2%-40.0%)</text>
		
			<text transform="matrix(1 0 0 1 869.7754 387.4878)" fill="#FFFFFF"  font-family="century gothic" font-size="29.2448" x="-20">48.7%</text>
		
			<text transform="matrix(1 0 0 1 769.9629 422.5806)" fill="#FFFFFF"  font-family="century gothic" font-size="29.2448" x="-20">(45.6%-51.7%)</text>
		
			<text transform="matrix(1 0 0 1 1088.4727 346.9238)" fill="#FFFFFF"  font-family="century gothic" font-size="29.2448" x="-20">55.2%</text>
		
			<text transform="matrix(1 0 0 1 988.6582 382.0176)" fill="#FFFFFF"  font-family="century gothic" font-size="29.2448" x="-20">(52.2%-58.2%)</text>
		
			<text transform="matrix(1 0 0 1 1088.4727 557.5469)" fill="#FFFFFF"  font-family="century gothic" font-size="29.2448" x="-20">38.6%</text>
		
			<text transform="matrix(1 0 0 1 988.6582 592.6387)" fill="#FFFFFF"  font-family="century gothic" font-size="29.2448" x="-20">(35.7%-41.5%)</text>
		
			<text transform="matrix(1 0 0 1 869.7754 610.917)" fill="#FFFFFF"  font-family="century gothic" font-size="29.2448" x="-20">31.7%</text>
		
			<text transform="matrix(1 0 0 1 769.9629 646.0117)" fill="#FFFFFF"  font-family="century gothic" font-size="29.2448" x="-20">(28.9%-34.6%)</text>
		
			<text transform="matrix(1 0 0 1 650.2627 694.2061)" fill="#FFFFFF"  font-family="century gothic" font-size="29.2448" x="-20">20.7%</text>
		
			<text transform="matrix(1 0 0 1 550.4536 729.2998)" fill="#FFFFFF"  font-family="century gothic" font-size="29.2448" x="-20">(18.3%-23.2%)</text>
		<g>
			<line fill="#FFFFFF" stroke="#FFFFFF" stroke-width="1.5" stroke-miterlimit="10" x1="350.688" y1="220.588" x2="390.424" y2="220.588"/>
			
				<line fill="#FFFFFF" stroke="#FFFFFF" stroke-width="1.5" stroke-miterlimit="10" stroke-dasharray="2,2" x1="350.688" y1="257.208" x2="390.424" y2="257.208"/>
			
				<line fill="#FFFFFF" stroke="#FFFFFF" stroke-width="1.5" stroke-miterlimit="10" stroke-dasharray="4,2" x1="350.688" y1="289.604" x2="390.424" y2="289.604"/>
		</g>
		
			<text transform="matrix(1 0 0 1 402.9575 228.5352)" fill="#FFFFFF"  font-family="century gothic" font-size="29.2448">MMR</text>
		
			<text transform="matrix(1 0 0 1 402.9575 266.1743)" fill="#FFFFFF"  font-family="century gothic" font-size="29.2448">MR</text>
		
			<text transform="matrix(1 0 0 1 442.2046 256.4443)" fill="#FFFFFF"  font-family="century gothic" font-size="17.0497" x="10">4</text>
		
			<text transform="matrix(1 0 0 1 402.9575 297.9717)" fill="#FFFFFF"  font-family="century gothic" font-size="29.2448">MR</text>
		
			<text transform="matrix(1 0 0 1 442.2046 288.2329)" fill="#FFFFFF"  font-family="century gothic" font-size="17.0497" x="10">4.5</text>
		
			<text transform="matrix(1 0 0 1 8.7358 890.0635)" fill="#FFFFFF"  font-family="century gothic" font-size="19.226">1. Hocchaus A et al. Efficacy and safety of frontline nilotinib in 1089 European patients (pts) with chronic myeloid leukemia in chronic phase </text>
		<text transform="matrix(1 0 0 1 8.7358 910.5342)"><tspan x="0" y="0" fill="#FFFFFF"  font-family="century gothic" font-size="19.226">(CP-CML): ENEST1st final analysis. Haematologica. 2015;100(9):1146-50.</tspan></text>
		
			<text transform="matrix(1 0 0 1 8.7358 931.0049)" fill="#FFFFFF"  font-family="century gothic" font-size="19.226">2. Hocchaus A et al. Frontline nilotinib in patients with chronic myeloid leukemia in chronic phase: results from the European ENEST1st study.</text>
		<text transform="matrix(1 0 0 1 8.7358 951.4775)"><tspan x="0" y="0" fill="#FFFFFF"  font-family="century gothic" font-size="19.226">Leukemia </tspan><tspan x="98.781" y="0" fill="#FFFFFF"  font-family="century gothic" font-size="19.226">2016;30(1):57-64.</tspan></text>
	</g>
	<line fill="#FFFFFF" stroke="#FFFFFF" stroke-miterlimit="10" x1="290.008" y1="38" x2="290.008" y2="761.727"/>
</g>
</svg>
