<?xml version="1.0" encoding="utf-8"?>
<!-- Generator: Adobe Illustrator 16.0.0, SVG Export Plug-In . SVG Version: 6.00 Build 0)  -->
<!DOCTYPE svg PUBLIC "-//W3C//DTD SVG 1.1//EN" "http://www.w3.org/Graphics/SVG/1.1/DTD/svg11.dtd">
<svg version="1.1" xmlns="http://www.w3.org/2000/svg" xmlns:xlink="http://www.w3.org/1999/xlink" x="0px" y="0px"  viewBox="0 0 1321 951"  xml:space="preserve" >
<g id="Layer_1">
</g>
<g id="Layer_2">
	<g id="F22_x5F_B">
		<g>
			<rect x="344.244" y="10.742" fill="#4A286E" width="239.69" height="98.067"/>
			<rect x="344.244" y="10.742" fill="none" stroke="#FFFFFF" stroke-miterlimit="10" width="239.69" height="98.067"/>
			<rect x="344.244" y="108.809" fill="#E5E5E5" width="239.69" height="64.989"/>
			<rect x="344.244" y="108.809" fill="none" stroke="#FFFFFF" stroke-miterlimit="10" width="239.69" height="64.989"/>
			<rect x="344.244" y="173.796" fill="#E5E5E5" width="239.69" height="64.988"/>
			<rect x="344.244" y="173.796" fill="none" stroke="#FFFFFF" stroke-miterlimit="10" width="239.69" height="64.988"/>
			<rect x="344.244" y="238.784" fill="#E5E5E5" width="239.69" height="64.987"/>
			<rect x="344.244" y="238.784" fill="none" stroke="#FFFFFF" stroke-miterlimit="10" width="239.69" height="64.987"/>
			<rect x="344.244" y="303.771" fill="#E5E5E5" width="239.69" height="64.989"/>
			<rect x="344.244" y="303.771" fill="none" stroke="#FFFFFF" stroke-miterlimit="10" width="239.69" height="64.989"/>
			<rect x="344.244" y="368.759" fill="#E5E5E5" width="239.69" height="64.988"/>
			<rect x="344.244" y="368.759" fill="none" stroke="#FFFFFF" stroke-miterlimit="10" width="239.69" height="64.988"/>
			<rect x="344.244" y="433.747" fill="#E5E5E5" width="239.69" height="64.987"/>
			<rect x="344.244" y="433.747" fill="none" stroke="#FFFFFF" stroke-miterlimit="10" width="239.69" height="64.987"/>
			<rect x="344.244" y="498.732" fill="#E5E5E5" width="239.69" height="64.989"/>
			<rect x="344.244" y="498.732" fill="none" stroke="#FFFFFF" stroke-miterlimit="10" width="239.69" height="64.989"/>
			<rect x="344.244" y="563.722" fill="#E5E5E5" width="239.69" height="64.989"/>
			<rect x="344.244" y="563.722" fill="none" stroke="#FFFFFF" stroke-miterlimit="10" width="239.69" height="64.989"/>
			<rect x="344.244" y="628.711" fill="#E5E5E5" width="239.69" height="64.988"/>
			<rect x="344.244" y="628.711" fill="none" stroke="#FFFFFF" stroke-miterlimit="10" width="239.69" height="64.988"/>
			<rect x="344.244" y="693.696" fill="#E5E5E5" width="239.69" height="64.988"/>
			<rect x="344.244" y="693.696" fill="none" stroke="#FFFFFF" stroke-miterlimit="10" width="239.69" height="64.988"/>
			<rect x="583.934" y="10.742" fill="#4A286E" width="239.689" height="98.067"/>
			<rect x="583.934" y="10.742" fill="none" stroke="#FFFFFF" stroke-miterlimit="10" width="239.689" height="98.067"/>
			<rect x="583.934" y="108.809" fill="#E5E5E5" width="239.689" height="64.989"/>
			<rect x="583.934" y="108.809" fill="none" stroke="#FFFFFF" stroke-miterlimit="10" width="239.689" height="64.989"/>
			<rect x="583.934" y="173.796" fill="#E5E5E5" width="239.689" height="64.988"/>
			<rect x="583.934" y="173.796" fill="none" stroke="#FFFFFF" stroke-miterlimit="10" width="239.689" height="64.988"/>
			<rect x="583.934" y="238.784" fill="#E5E5E5" width="239.689" height="64.987"/>
			<rect x="583.934" y="238.784" fill="none" stroke="#FFFFFF" stroke-miterlimit="10" width="239.689" height="64.987"/>
			<rect x="583.934" y="303.771" fill="#E5E5E5" width="239.689" height="64.989"/>
			<rect x="583.934" y="303.771" fill="none" stroke="#FFFFFF" stroke-miterlimit="10" width="239.689" height="64.989"/>
			<rect x="583.934" y="368.759" fill="#E5E5E5" width="239.689" height="64.988"/>
			<rect x="583.934" y="368.759" fill="none" stroke="#FFFFFF" stroke-miterlimit="10" width="239.689" height="64.988"/>
			<rect x="583.934" y="433.747" fill="#E5E5E5" width="239.689" height="64.987"/>
			<rect x="583.934" y="433.747" fill="none" stroke="#FFFFFF" stroke-miterlimit="10" width="239.689" height="64.987"/>
			<rect x="583.934" y="498.732" fill="#E5E5E5" width="239.689" height="64.989"/>
			<rect x="583.934" y="498.732" fill="none" stroke="#FFFFFF" stroke-miterlimit="10" width="239.689" height="64.989"/>
			<rect x="583.934" y="563.722" fill="#E5E5E5" width="239.689" height="64.989"/>
			<rect x="583.934" y="563.722" fill="none" stroke="#FFFFFF" stroke-miterlimit="10" width="239.689" height="64.989"/>
			<rect x="583.934" y="628.711" fill="#E5E5E5" width="239.689" height="64.988"/>
			<rect x="583.934" y="628.711" fill="none" stroke="#FFFFFF" stroke-miterlimit="10" width="239.689" height="64.988"/>
			<rect x="583.934" y="693.696" fill="#E5E5E5" width="239.689" height="64.988"/>
			<rect x="583.934" y="693.696" fill="none" stroke="#FFFFFF" stroke-miterlimit="10" width="239.689" height="64.988"/>
			<rect x="823.623" y="10.742" fill="#4A286E" width="239.689" height="98.067"/>
			<rect x="823.623" y="10.742" fill="none" stroke="#FFFFFF" stroke-miterlimit="10" width="239.689" height="98.067"/>
			<rect x="823.623" y="108.809" fill="#E5E5E5" width="239.689" height="64.989"/>
			<rect x="823.623" y="108.809" fill="none" stroke="#FFFFFF" stroke-miterlimit="10" width="239.689" height="64.989"/>
			<rect x="823.623" y="173.796" fill="#E5E5E5" width="239.689" height="64.988"/>
			<rect x="823.623" y="173.796" fill="none" stroke="#FFFFFF" stroke-miterlimit="10" width="239.689" height="64.988"/>
			<rect x="823.623" y="238.784" fill="#E5E5E5" width="239.689" height="64.987"/>
			<rect x="823.623" y="238.784" fill="none" stroke="#FFFFFF" stroke-miterlimit="10" width="239.689" height="64.987"/>
			<rect x="823.623" y="303.771" fill="#E5E5E5" width="239.689" height="64.989"/>
			<rect x="823.623" y="303.771" fill="none" stroke="#FFFFFF" stroke-miterlimit="10" width="239.689" height="64.989"/>
			<rect x="823.623" y="368.759" fill="#E5E5E5" width="239.689" height="64.988"/>
			<rect x="823.623" y="368.759" fill="none" stroke="#FFFFFF" stroke-miterlimit="10" width="239.689" height="64.988"/>
			<rect x="823.623" y="433.747" fill="#E5E5E5" width="239.689" height="64.987"/>
			<rect x="823.623" y="433.747" fill="none" stroke="#FFFFFF" stroke-miterlimit="10" width="239.689" height="64.987"/>
			<rect x="823.623" y="498.732" fill="#E5E5E5" width="239.689" height="64.989"/>
			<rect x="823.623" y="498.732" fill="none" stroke="#FFFFFF" stroke-miterlimit="10" width="239.689" height="64.989"/>
			<rect x="823.623" y="563.722" fill="#E5E5E5" width="239.689" height="64.989"/>
			<rect x="823.623" y="563.722" fill="none" stroke="#FFFFFF" stroke-miterlimit="10" width="239.689" height="64.989"/>
			<rect x="823.623" y="628.711" fill="#E5E5E5" width="239.689" height="64.988"/>
			<rect x="823.623" y="628.711" fill="none" stroke="#FFFFFF" stroke-miterlimit="10" width="239.689" height="64.988"/>
			<rect x="823.623" y="693.696" fill="#E5E5E5" width="239.689" height="64.988"/>
			<rect x="823.623" y="693.696" fill="none" stroke="#FFFFFF" stroke-miterlimit="10" width="239.689" height="64.988"/>
			<rect x="1063.313" y="10.742" fill="#4A286E" width="239.688" height="98.067"/>
			<rect x="1063.313" y="10.742" fill="none" stroke="#FFFFFF" stroke-miterlimit="10" width="239.688" height="98.067"/>
			<rect x="1063.313" y="108.809" fill="#E5E5E5" width="239.688" height="64.989"/>
			<rect x="1063.313" y="108.809" fill="none" stroke="#FFFFFF" stroke-miterlimit="10" width="239.688" height="64.989"/>
			<rect x="1063.313" y="173.796" fill="#E5E5E5" width="239.688" height="64.988"/>
			<rect x="1063.313" y="173.796" fill="none" stroke="#FFFFFF" stroke-miterlimit="10" width="239.688" height="64.988"/>
			<rect x="1063.313" y="238.784" fill="#E5E5E5" width="239.688" height="64.987"/>
			<rect x="1063.313" y="238.784" fill="none" stroke="#FFFFFF" stroke-miterlimit="10" width="239.688" height="64.987"/>
			<rect x="1063.313" y="303.771" fill="#E5E5E5" width="239.688" height="64.989"/>
			<rect x="1063.313" y="303.771" fill="none" stroke="#FFFFFF" stroke-miterlimit="10" width="239.688" height="64.989"/>
			<rect x="1063.313" y="368.759" fill="#E5E5E5" width="239.688" height="64.988"/>
			<rect x="1063.313" y="368.759" fill="none" stroke="#FFFFFF" stroke-miterlimit="10" width="239.688" height="64.988"/>
			<rect x="1063.313" y="433.747" fill="#E5E5E5" width="239.688" height="64.987"/>
			<rect x="1063.313" y="433.747" fill="none" stroke="#FFFFFF" stroke-miterlimit="10" width="239.688" height="64.987"/>
			<rect x="1063.313" y="498.732" fill="#E5E5E5" width="239.688" height="64.989"/>
			<rect x="1063.313" y="498.732" fill="none" stroke="#FFFFFF" stroke-miterlimit="10" width="239.688" height="64.989"/>
			<rect x="1063.313" y="563.722" fill="#E5E5E5" width="239.688" height="64.989"/>
			<rect x="1063.313" y="563.722" fill="none" stroke="#FFFFFF" stroke-miterlimit="10" width="239.688" height="64.989"/>
			<rect x="1063.313" y="628.711" fill="#E5E5E5" width="239.688" height="64.988"/>
			<rect x="1063.313" y="628.711" fill="none" stroke="#FFFFFF" stroke-miterlimit="10" width="239.688" height="64.988"/>
			<rect x="1063.313" y="693.696" fill="#E5E5E5" width="239.688" height="64.988"/>
			<rect x="1063.313" y="693.696" fill="none" stroke="#FFFFFF" stroke-miterlimit="10" width="239.688" height="64.988"/>
			<rect x="19.323" y="10.742" fill="#4A286E" width="324.921" height="98.067"/>
			<rect x="19.323" y="10.742" fill="none" stroke="#FFFFFF" stroke-miterlimit="10" width="324.921" height="98.067"/>
			<rect x="18.684" y="108.809" fill="#E5E5E5" width="324.921" height="64.989"/>
			<rect x="18.684" y="108.809" fill="none" stroke="#FFFFFF" stroke-miterlimit="10" width="324.921" height="64.989"/>
		</g>
		<text transform="matrix(1 0 0 1 423.2041 49.3486)" fill="#FFFFFF" font-family="century gothic" font-size="32.1987">Total </text>
		<text transform="matrix(1 0 0 1 374.5845 87.9868)" fill="#FFFFFF" font-family="century gothic" font-size="32.1987">(all grades)</text>
		<text transform="matrix(1 0 0 1 66.1221 74.0117)" fill="#FFFFFF" font-family="century gothic" font-size="32.1987">Patients, n (%)</text>
		<text transform="matrix(1 0 0 1 285.0449 63.3042)" fill="#FFFFFF" font-family="century gothic" font-size="18.7718">a</text>
		<text transform="matrix(1 0 0 1 42.9214 150.3169)" font-family="century gothic" font-size="22.9991">Asthenia</text>
		<text transform="matrix(1 0 0 1 423.7393 147.6475)" font-family="century gothic" font-size="22.9991">97 (8.9)</text>
		<g>
			<rect x="18.684" y="173.796" fill="#E5E5E5" width="324.921" height="64.988"/>
			<rect x="18.684" y="173.796" fill="none" stroke="#FFFFFF" stroke-miterlimit="10" width="324.921" height="64.988"/>
		</g>
		<text transform="matrix(1 0 0 1 42.9214 215.3037)" font-family="century gothic" font-size="22.9991">Diarrhea</text>
		<text transform="matrix(1 0 0 1 423.7393 212.6357)" font-family="century gothic" font-size="22.9991">94 (8.6)</text>
		<g>
			<rect x="18.684" y="238.784" fill="#E5E5E5" width="324.921" height="64.987"/>
			<rect x="18.684" y="238.784" fill="none" stroke="#FFFFFF" stroke-miterlimit="10" width="324.921" height="64.987"/>
		</g>
		<text transform="matrix(1 0 0 1 42.9214 280.2925)" font-family="century gothic" font-size="22.9991">Dry skin</text>
		<text transform="matrix(1 0 0 1 423.7393 277.6245)" font-family="century gothic" font-size="22.9991">93 (8.5)</text>
		<g>
			<rect x="18.684" y="303.771" fill="#E5E5E5" width="324.921" height="64.989"/>
			<rect x="18.684" y="303.771" fill="none" stroke="#FFFFFF" stroke-miterlimit="10" width="324.921" height="64.989"/>
		</g>
		<text transform="matrix(1 0 0 1 42.9214 345.2808)" font-family="century gothic" font-size="22.9991">Muscle spasms</text>
		<text transform="matrix(1 0 0 1 423.7393 342.6113)" font-family="century gothic" font-size="22.9991">93 (8.5)</text>
		<g>
			<rect x="18.684" y="368.759" fill="#E5E5E5" width="324.921" height="64.988"/>
			<rect x="18.684" y="368.759" fill="none" stroke="#FFFFFF" stroke-miterlimit="10" width="324.921" height="64.988"/>
		</g>
		<text transform="matrix(1 0 0 1 42.9214 410.2676)" font-family="century gothic" font-size="22.9991">Back pain</text>
		<g>
			<rect x="18.684" y="433.747" fill="#E5E5E5" width="324.921" height="64.987"/>
			<rect x="18.684" y="433.747" fill="none" stroke="#FFFFFF" stroke-miterlimit="10" width="324.921" height="64.987"/>
		</g>
		<text transform="matrix(1 0 0 1 42.9214 475.2529)" font-family="century gothic" font-size="22.9991">Constipation</text>
		<text transform="matrix(1 0 0 1 423.7393 472.585)" font-family="century gothic" font-size="22.9991">67 (6.2)</text>
		<g>
			<rect x="18.684" y="498.732" fill="#E5E5E5" width="324.921" height="64.989"/>
			<rect x="18.684" y="498.732" fill="none" stroke="#FFFFFF" stroke-miterlimit="10" width="324.921" height="64.989"/>
		</g>
		<text transform="matrix(1 0 0 1 42.9214 540.2412)" font-family="century gothic" font-size="22.9991">Arterial hypertension</text>
		<text transform="matrix(1 0 0 1 423.7393 537.5752)" font-family="century gothic" font-size="22.9991">65 (6.0)</text>
		<g>
			<rect x="18.684" y="563.722" fill="#E5E5E5" width="324.921" height="64.989"/>
			<rect x="18.684" y="563.722" fill="none" stroke="#FFFFFF" stroke-miterlimit="10" width="324.921" height="64.989"/>
		</g>
		<text transform="matrix(1 0 0 1 42.9214 605.2314)" font-family="century gothic" font-size="22.9991">Vomiting</text>
		<text transform="matrix(1 0 0 1 423.7393 602.5635)" font-family="century gothic" font-size="22.9991">65 (6.0)</text>
		<g>
			<rect x="18.684" y="628.711" fill="#E5E5E5" width="324.921" height="64.988"/>
			<rect x="18.684" y="628.711" fill="none" stroke="#FFFFFF" stroke-miterlimit="10" width="324.921" height="64.988"/>
		</g>
		<text transform="matrix(1 0 0 1 42.9214 670.2178)" font-family="century gothic" font-size="22.9991">Cough</text>
		<text transform="matrix(1 0 0 1 423.7393 667.5479)" font-family="century gothic" font-size="22.9991">56 (5.1)</text>
		<g>
			<rect x="18.684" y="693.696" fill="#E5E5E5" width="324.921" height="64.988"/>
			<rect x="18.684" y="693.696" fill="none" stroke="#FFFFFF" stroke-miterlimit="10" width="324.921" height="64.988"/>
		</g>
		<text transform="matrix(1 0 0 1 423.7412 732.541)" font-family="century gothic" font-size="22.9991">55 (5.1)</text>
		<text transform="matrix(1 0 0 1 640.0264 68.6685)" fill="#FFFFFF" font-family="century gothic" font-size="32.1987">Grade 2</text>
		<text transform="matrix(1 0 0 1 663.4316 147.2207)" font-family="century gothic" font-size="22.9991">25 (2.3)</text>
		<text transform="matrix(1 0 0 1 663.4316 212.2148)" font-family="century gothic" font-size="22.9991">22 (2.0)</text>
		<text transform="matrix(1 0 0 1 663.4316 277.2114)" font-family="century gothic" font-size="22.9991">19 (1.7)</text>
		<text transform="matrix(1 0 0 1 663.4316 342.2075)" font-family="century gothic" font-size="22.9991">13 (1.2)</text>
		<text transform="matrix(1 0 0 1 663.4316 472.1729)" font-family="century gothic" font-size="22.9991">21 (1.9)</text>
		<text transform="matrix(1 0 0 1 669.8008 537.1689)" font-family="century gothic" font-size="22.9991">1 (0.4)</text>
		<text transform="matrix(1 0 0 1 663.4316 602.1631)" font-family="century gothic" font-size="22.9991">31 (2.8)</text>
		<text transform="matrix(1 0 0 1 663.4316 667.1602)" font-family="century gothic" font-size="22.9991">13 (1.2)</text>
		<text transform="matrix(1 0 0 1 663.4316 732.1543)" font-family="century gothic" font-size="22.9991">15 (1.4)</text>
		<text transform="matrix(1 0 0 1 879.7148 68.6685)" fill="#FFFFFF" font-family="century gothic" font-size="32.1987">Grade 3</text>
		<text transform="matrix(1 0 0 1 909.4902 147.2207)" font-family="century gothic" font-size="22.9991">2 (0.2)</text>
		<text transform="matrix(1 0 0 1 909.4902 212.2148)" font-family="century gothic" font-size="22.9991">2 (0.2)</text>
		<text transform="matrix(1 0 0 1 937.0898 277.2114)" font-family="century gothic" font-size="22.9991">0</text>
		<text transform="matrix(1 0 0 1 937.0898 342.2075)" font-family="century gothic" font-size="22.9991">0</text>
		<text transform="matrix(1 0 0 1 909.4902 407.6377)" font-family="century gothic" font-size="22.9991">4 (0.4)</text>
		<text transform="matrix(1 0 0 1 909.4902 472.1963)" font-family="century gothic" font-size="22.9991">1 (0.1)</text>
		<text transform="matrix(1 0 0 1 903.1211 537.1904)" font-family="century gothic" font-size="22.9991">12 (1.1)</text>
		<text transform="matrix(1 0 0 1 909.4902 602.1885)" font-family="century gothic" font-size="22.9991">2 (0.2)</text>
		<text transform="matrix(1 0 0 1 909.4902 667.1826)" font-family="century gothic" font-size="22.9991">1 (0.1)</text>
		<text transform="matrix(1 0 0 1 909.4902 732.1768)" font-family="century gothic" font-size="22.9991">2 (0.2)</text>
		<text transform="matrix(1 0 0 1 1119.4043 68.6685)" fill="#FFFFFF" font-family="century gothic" font-size="32.1987">Grade 3</text>
		<text transform="matrix(1 0 0 1 1176.7832 147.2207)" font-family="century gothic" font-size="22.9991">0</text>
		<text transform="matrix(1 0 0 1 1176.7832 212.2148)" font-family="century gothic" font-size="22.9991">0</text>
		<text transform="matrix(1 0 0 1 1176.7832 277.2114)" font-family="century gothic" font-size="22.9991">0</text>
		<text transform="matrix(1 0 0 1 1176.7832 342.2075)" font-family="century gothic" font-size="22.9991">0</text>
		<text transform="matrix(1 0 0 1 1176.7832 472.1729)" font-family="century gothic" font-size="22.9991">0</text>
		<text transform="matrix(1 0 0 1 1176.7832 537.1689)" font-family="century gothic" font-size="22.9991">0</text>
		<text transform="matrix(1 0 0 1 1149.1836 602.1631)" font-family="century gothic" font-size="22.9991">1 (0.1)</text>
		<text transform="matrix(1 0 0 1 1176.7832 667.1602)" font-family="century gothic" font-size="22.9991">0</text>
		<text transform="matrix(1 0 0 1 1176.7832 732.1543)" font-family="century gothic" font-size="22.9991">0</text>
		<text transform="matrix(1 0 0 1 42.9287 735.2598)" font-family="century gothic" font-size="22.9991">Insomnia</text>
		<g>
			<rect x="344.244" y="758.685" fill="#E5E5E5" width="239.69" height="64.988"/>
			<rect x="344.244" y="758.685" fill="none" stroke="#FFFFFF" stroke-miterlimit="10" width="239.69" height="64.988"/>
			<rect x="583.934" y="758.685" fill="#E5E5E5" width="239.689" height="64.988"/>
			<rect x="583.934" y="758.685" fill="none" stroke="#FFFFFF" stroke-miterlimit="10" width="239.689" height="64.988"/>
			<rect x="823.623" y="758.685" fill="#E5E5E5" width="239.689" height="64.988"/>
			<rect x="823.623" y="758.685" fill="none" stroke="#FFFFFF" stroke-miterlimit="10" width="239.689" height="64.988"/>
			<rect x="1063.313" y="758.685" fill="#E5E5E5" width="239.688" height="64.988"/>
			<rect x="1063.313" y="758.685" fill="none" stroke="#FFFFFF" stroke-miterlimit="10" width="239.688" height="64.988"/>
			<rect x="18.684" y="758.685" fill="#E5E5E5" width="324.921" height="64.988"/>
			<rect x="18.684" y="758.685" fill="none" stroke="#FFFFFF" stroke-miterlimit="10" width="324.921" height="64.988"/>
		</g>
		<text transform="matrix(1 0 0 1 423.7412 797.5273)" font-family="century gothic" font-size="22.9991">54 (5.0)</text>
		<text transform="matrix(1 0 0 1 663.4375 797.0898)" font-family="century gothic" font-size="22.9991">16 (1.5)</text>
		<text transform="matrix(1 0 0 1 909.502 797.0898)" font-family="century gothic" font-size="22.9991">2 (0.2)</text>
		<text transform="matrix(1 0 0 1 1176.7988 797.0898)" font-family="century gothic" font-size="22.9991">0</text>
		<text transform="matrix(1 0 0 1 42.9463 800.1953)" font-family="century gothic" font-size="22.9991">Pain in extremity</text>
		<text transform="matrix(1 0 0 1 423.7622 407.6016)" font-family="century gothic" font-size="22.9991">80 (7.3)</text>
		<text transform="matrix(1 0 0 1 663.459 407.6016)" font-family="century gothic" font-size="22.9991">26 (2.4)</text>
		<text transform="matrix(1 0 0 1 1176.8223 407.6016)" font-family="century gothic" font-size="22.9991">0</text>
		<text transform="matrix(1 0 0 1 19.1284 910.4111)" fill="#FFFFFF" font-family="century gothic" font-size="19.226">Hocchaus A et al. Frontline Nilotinib in patients with chronic myeloid leukemia in chronic phase: Results from the European ENEST1st study.</text>
		<text transform="matrix(1 0 0 1 18.562 932.4111)"><tspan x="0" y="0" fill="#FFFFFF" font-family="century gothic" font-size="19.226">Leukemia. 2016;30(1):57-64.</tspan></text>
		<text transform="matrix(1 0 0 1 18.5625 862.0156)" fill="#FFFFFF" font-family="century gothic" font-size="22.9991">a: Excluding events that started &gt;28 days after the last dose of study drug or month 24</text>
	</g>
</g>
</svg>
