<?xml version="1.0" encoding="utf-8"?>
<!-- Generator: Adobe Illustrator 16.0.0, SVG Export Plug-In . SVG Version: 6.00 Build 0)  -->
<!DOCTYPE svg PUBLIC "-//W3C//DTD SVG 1.1//EN" "http://www.w3.org/Graphics/SVG/1.1/DTD/svg11.dtd">
<svg version="1.1" id="Layer_1" xmlns="http://www.w3.org/2000/svg" xmlns:xlink="http://www.w3.org/1999/xlink" x="0px" y="0px"
	  viewBox="0 0 1238 648"  xml:space="preserve">
<g>
	<g>
		<path fill="#E58F29" d="M1205.059,164.299H631.106c-9.862,0-17.932-8.069-17.932-17.934V46.185c0-9.863,8.07-17.934,17.932-17.934
			h573.952c9.863,0,17.933,8.071,17.933,17.934v100.18C1222.991,156.229,1214.922,164.299,1205.059,164.299"/>
	</g>
	<text transform="matrix(1 0 0 1 649.3066 86.1191)" fill="#FFFFFF" font-family="'century gothic'" font-size="32">Mr. S, a 48-year-old male, presents </text>
	<text transform="matrix(1 0 0 1 630.1758 123.7568)" fill="#FFFFFF" font-family="'century gothic'" font-size="32">with following complaints for 6 months</text>
	<text transform="matrix(1 0 0 1 666.1738 265.877)" fill="#FFFFFF" font-family="'century gothic'" font-size="28">• Lassitude</text>
	<text transform="matrix(1 0 0 1 666.1738 310.5859)" fill="#FFFFFF" font-family="'century gothic'" font-size="28">• Fatigue</text>
	<text transform="matrix(1 0 0 1 666.1738 355.293)" fill="#FFFFFF" font-family="'century gothic'" font-size="28">• Weight loss</text>
	<text transform="matrix(1 0 0 1 666.1738 399.999)" fill="#FFFFFF" font-family="'century gothic'" font-size="28">• Abdominal discomfort</text>
	<g>
		<path fill="#E58F29" d="M1205.059,622.431H631.106c-9.862,0-17.932-8.069-17.932-17.934V504.315
			c0-9.861,8.07-17.929,17.932-17.929h573.952c9.864,0,17.933,8.067,17.933,17.929v100.182
			C1222.991,614.361,1214.923,622.431,1205.059,622.431"/>
	</g>
	<text transform="matrix(1 0 0 1 657.1406 544.252)" fill="#FFFFFF" font-family="'century gothic'" font-size="32">He also complains of night sweats </text>
	<text transform="matrix(1 0 0 1 808.3242 581.8906)" fill="#FFFFFF" font-family="'century gothic'" font-size="32">and mild fever</text>
	<g>
		<polygon fill="#6D9C87" points="303.225,463.556 197.865,425.927 197.865,403.352 122.609,403.352 122.609,425.927 17.25,463.556 
			17.25,531.283 303.225,531.283 		"/>
		<polygon fill="#CAA582" points="122.609,365.722 122.609,403.352 160.237,440.979 197.867,403.352 197.867,365.722 		"/>
		<polygon fill="#B78E6E" points="160.237,440.979 122.609,403.352 122.609,365.722 160.237,365.722 		"/>
		<path fill="#4D4D4B" d="M160.237,443.99c-0.771,0-1.539-0.297-2.128-0.883c-1.176-1.178-1.176-3.083,0-4.259l36.748-36.745
			v-51.431c0-1.664,1.346-3.01,3.01-3.01c1.664,0,3.007,1.346,3.007,3.01v52.679c0,0.799-0.315,1.565-0.879,2.125l-37.628,37.631
			C161.778,443.693,161.009,443.99,160.237,443.99"/>
		<path fill="#CAA582" d="M220.443,305.518h15.05c8.312,0,15.05-6.738,15.05-15.05v-15.051c0-4.157-3.368-7.526-7.524-7.526h-22.577
			V305.518z"/>
		<path fill="#CAA582" d="M100.033,305.518h-15.05c-8.314,0-15.051-6.738-15.051-15.05v-15.051c0-4.157,3.367-7.526,7.525-7.526
			h22.576V305.518z"/>
		<path fill="#4D4D4B" d="M103.042,308.526H84.983c-9.961,0-18.063-8.1-18.063-18.063v-15.048c0-5.81,4.726-10.538,10.536-10.538
			h25.586V308.526z M77.457,270.9c-2.49,0-4.516,2.024-4.516,4.516v15.048c0,6.644,5.401,12.046,12.042,12.046h12.04V270.9H77.457z"
			/>
		<path fill="#E4C8AD" d="M235.495,230.261c0-41.563-33.695-75.255-75.257-75.255c-41.565,0-75.256,33.692-75.256,75.255
			c-0.274,61.907,7.523,112.885,7.523,112.885c21.965,25.763,52.682,37.628,52.682,37.628h15.051h15.05
			c0,0,30.714-11.865,52.679-37.628C227.967,343.146,235.767,292.168,235.495,230.261"/>
		<path fill="#CAA582" d="M160.237,380.774h-15.05c0,0-30.716-11.865-52.682-37.628c0,0-7.795-50.979-7.523-112.885
			c0-41.563,33.691-75.254,75.255-75.254V380.774z"/>
		<path fill="#4D4D4B" d="M160.237,383.784h-15.05c-0.372,0-0.739-0.07-1.086-0.204c-1.283-0.496-31.679-12.435-53.884-38.481
			c-0.363-0.426-0.601-0.946-0.685-1.497c-0.079-0.512-7.831-51.924-7.561-113.354c0-43.141,35.111-78.251,78.267-78.251
			c1.664,0,3.011,1.347,3.011,3.01c0,1.662-1.347,3.012-3.011,3.012c-39.835,0-72.246,32.408-72.246,72.244
			c-0.249,56.653,6.37,104.688,7.369,111.583c19.63,22.653,46.431,34.274,50.412,35.92h14.466c1.664,0,3.011,1.344,3.011,3.01
			C163.248,382.436,161.901,383.784,160.237,383.784"/>
		<path fill="#6E614F" d="M205.393,139.955v-15.051c-15.028-0.523-29.26,2.684-37.593,5.076l-7.563-12.603
			c-42.773,15.71-82.781,39.149-82.781,90.309c0,51.155,10.785,97.829,10.785,97.829c0-45.985,4.267-82.778,4.267-82.778h7.524
			l15.053-30.104l45.152,15.054l45.155-15.054l15.05,30.104h7.526c0,0,4.479,36.793,4.479,82.778c0,0,10.572-46.673,10.572-97.829
			C243.02,178.733,227.057,156.071,205.393,139.955"/>
		<path fill="#4D4D4B" d="M190.341,293.478c-1.663,0-3.01-1.348-3.01-3.01v-7.527c0-1.662,1.347-3.01,3.01-3.01
			s3.009,1.348,3.009,3.01v7.527C193.35,292.13,192.004,293.478,190.341,293.478"/>
		<path fill="#4D4D4B" d="M130.136,293.478c-1.663,0-3.01-1.348-3.01-3.01v-7.527c0-1.662,1.347-3.01,3.01-3.01
			c1.663,0,3.009,1.348,3.009,3.01v7.527C133.145,292.13,131.799,293.478,130.136,293.478"/>
		<path fill="#4D4D4B" d="M167.764,361.208h-15.052c-1.662,0-3.01-1.35-3.01-3.009c0-1.663,1.348-3.012,3.01-3.012h15.052
			c1.662,0,3.009,1.349,3.009,3.012C170.772,359.858,169.425,361.208,167.764,361.208"/>
		<path fill="#4D4D4B" d="M152.711,323.582c-1.662,0-3.008-1.35-3.008-3.012V284.19l-13.44-13.442l-29.079-3.636
			c-1.651-0.204-2.82-1.709-2.613-3.359c0.205-1.648,1.709-2.826,3.36-2.613l30.101,3.763c0.666,0.085,1.283,0.385,1.757,0.857
			l15.052,15.053c0.563,0.564,0.879,1.331,0.879,2.128v37.629C155.721,322.231,154.375,323.582,152.711,323.582"/>
		<path fill="#4D4D4B" d="M175.288,278.426c-0.77,0-1.539-0.292-2.128-0.883c-1.176-1.172-1.176-3.079,0-4.254l7.525-7.528
			c0.475-0.472,1.093-0.772,1.757-0.855l30.1-3.766c1.648-0.213,3.155,0.964,3.361,2.614c0.208,1.649-0.962,3.154-2.612,3.362
			l-29.077,3.633l-6.796,6.795C176.829,278.133,176.061,278.426,175.288,278.426"/>
		<path fill="#4D4D4B" d="M14.242,531.283v-67.728c0-1.273,0.8-2.405,1.998-2.833L119.6,423.804v-20.452
			c0-1.663,1.348-3.011,3.01-3.011s3.011,1.348,3.011,3.011v22.575c0,1.271-0.799,2.406-1.998,2.833l-103.36,36.917v65.606H14.242z"
			/>
		<path fill="#4D4D4B" d="M88.246,308.526c-1.386,0-2.614-0.951-2.934-2.329c-0.106-0.473-10.862-47.6-10.862-98.512
			c0-54.957,45.294-78.641,84.754-93.133c1.56-0.574,3.291,0.226,3.862,1.787c0.574,1.562-0.225,3.292-1.787,3.866
			c-25.655,9.421-43.585,19.348-56.422,31.241c-16.409,15.201-24.387,33.598-24.387,56.239c0,25.231,2.68,49.528,5.357,67.513
			c1.167-30.698,3.662-52.527,3.695-52.809c0.173-1.518,1.461-2.664,2.99-2.664h5.663l14.221-28.438
			c0.671-1.339,2.222-1.982,3.644-1.511l44.202,14.735l44.203-14.735c1.577-0.525,3.281,0.329,3.808,1.905
			c0.524,1.577-0.326,3.282-1.905,3.806l-45.152,15.052c-0.619,0.206-1.287,0.206-1.903,0l-42.676-14.225l-13.886,27.768
			c-0.51,1.017-1.552,1.663-2.692,1.663h-4.821c-0.954,9.249-3.959,41.483-3.959,79.771c0,1.533-1.148,2.82-2.67,2.99
			C88.474,308.521,88.359,308.526,88.246,308.526"/>
		<path fill="#4D4D4B" d="M157.228,531.283v-67.728c0-0.799,0.316-1.565,0.881-2.128l36.746-36.747v-21.329
			c0-1.663,1.349-3.011,3.009-3.011c1.665,0,3.011,1.348,3.011,3.011v22.575c0,0.801-0.315,1.564-0.883,2.13l-36.743,36.744v66.482
			H157.228z"/>
		<polygon fill="#6E614F" points="205.393,343.146 115.085,343.146 137.661,320.569 182.815,320.569 		"/>
		<path fill="#4D4D4B" d="M182.815,346.156h-45.154c-1.663,0-3.009-1.352-3.009-3.01c0-1.662,1.347-3.01,3.009-3.01h45.154
			c1.663,0,3.008,1.348,3.008,3.01C185.824,344.805,184.478,346.156,182.815,346.156"/>
		<path fill="#4D4D4B" d="M115.084,346.156c-0.77,0-1.54-0.292-2.128-0.883c-1.177-1.172-1.177-3.08,0-4.256l22.576-22.576
			c0.564-0.566,1.331-0.884,2.129-0.884h30.1c1.664,0,3.014,1.349,3.014,3.012c0,1.662-1.35,3.012-3.014,3.012h-28.854
			l-21.695,21.692C116.625,345.864,115.855,346.156,115.084,346.156"/>
	</g>
</g>
</svg>
