<?xml version="1.0" encoding="utf-8"?>
<!-- Generator: Adobe Illustrator 16.0.0, SVG Export Plug-In . SVG Version: 6.00 Build 0)  -->
<!DOCTYPE svg PUBLIC "-//W3C//DTD SVG 1.1//EN" "http://www.w3.org/Graphics/SVG/1.1/DTD/svg11.dtd">
<svg version="1.1" id="Layer_1" xmlns="http://www.w3.org/2000/svg" xmlns:xlink="http://www.w3.org/1999/xlink" x="0px" y="0px"
	 viewBox="0 0 1238 648"  xml:space="preserve" >
  
  <defs>
  <style type="text/css">
   <![CDATA[
   @font-face {
	font-family: 'gothicB';
	src: url('../../fonts/gothicB.eot');
	src: url('../../fonts/gothicB.ttf') format('truetype');
}

   ]]>
 </style>
</defs>
  
<g id="F2">
	<g>
		<path fill="#E58F29" d="M1183.474,161.72H490.937c-11.9,0-21.636-8.308-21.636-18.464V40.112c0-10.155,9.736-18.464,21.636-18.464
			h692.537c11.901,0,21.639,8.309,21.639,18.464v103.145C1205.112,153.412,1195.375,161.72,1183.474,161.72"/>
	</g>
	<g>
		<path fill="#E58F29" d="M1183.474,392.991H490.937c-11.9,0-21.636-8.308-21.636-18.465V271.38
			c0-10.152,9.736-18.462,21.636-18.462h692.537c11.901,0,21.639,8.31,21.639,18.462v103.146
			C1205.112,384.684,1195.375,392.991,1183.474,392.991"/>
	</g>
	<g>
		<path fill="#E58F29" d="M1183.474,624.262H490.937c-11.9,0-21.636-8.308-21.636-18.465V502.653
			c0-10.155,9.736-18.466,21.636-18.466h692.537c11.901,0,21.639,8.311,21.639,18.466v103.144
			C1205.112,615.954,1195.375,624.262,1183.474,624.262"/>
	</g>
	<g>
		<text transform="matrix(1 0 0 1 597.1172 60.8501)" fill="#FFFFFF" font-family="'gothicB'" font-size="32">He has no history of diabetes,</text>
		<text transform="matrix(1 0 0 1 626.5059 99.603)" fill="#FFFFFF" font-family="'gothicB'" font-size="32">hypertension or any other</text>
		<text transform="matrix(1 0 0 1 649.1113 138.3555)" fill="#FFFFFF" font-family="'gothicB'" font-size="32">cardiovascular disease</text>
		<text transform="matrix(1 0 0 1 640.3857 311.4961)" fill="#FFFFFF" font-family="'gothicB'" font-size="32">He has no history of any</text>
		<text transform="matrix(1 0 0 1 697.8691 350.25)" fill="#FFFFFF" font-family="'gothicB'" font-size="32">thyroid disorders</text>
		<text transform="matrix(1 0 0 1 574.1826 542.7676)" fill="#FFFFFF" font-family="'gothicB'" font-size="32">He has no history of any previous</text>
		<text transform="matrix(1 0 0 1 732.7451 581.5205)" fill="#FFFFFF" font-family="'gothicB'" font-size="32">malignancy</text>
	</g>
</g>
<g id="F1" display="none">
	<text transform="matrix(0.9599 0 0 1 449.5591 -56.084)" fill="#282828" font-family="'century gothic'" font-size="38.2519">Presenting complaint</text>
	<g display="inline">
		<path fill="#E58F29" d="M1183.387,158.647H488.046c-11.948,0-21.724-8.179-21.724-18.178V38.929
			c0-9.997,9.776-18.178,21.724-18.178h695.341c11.949,0,21.726,8.181,21.726,18.178v101.54
			C1205.112,150.468,1195.336,158.647,1183.387,158.647"/>
	</g>
	<g display="inline">
		<path fill="#E58F29" d="M1183.387,623H488.046c-11.948,0-21.724-8.179-21.724-18.177V503.281c0-9.995,9.776-18.172,21.724-18.172
			h695.341c11.949,0,21.726,8.177,21.726,18.172v101.542C1205.112,614.821,1195.336,623,1183.387,623"/>
	</g>
	<g display="inline">
		<text transform="matrix(0.9599 0 0 1 517.8867 261.6045)" fill="#FFFFFF" font-family="'century gothic'" font-size="28">• Lassitude</text>
		<text transform="matrix(0.9599 0 0 1 517.8867 306.9199)" fill="#FFFFFF" font-family="'century gothic'" font-size="28">• Fatigue</text>
		<text transform="matrix(0.9599 0 0 1 517.8867 352.2344)" fill="#FFFFFF" font-family="'century gothic'" font-size="28">• Weight loss</text>
		<text transform="matrix(0.9599 0 0 1 517.8867 397.5479)" fill="#FFFFFF" font-family="'century gothic'" font-size="28">• Abdominal discomfort</text>
	</g>
	<g>
		
			<text transform="matrix(0.9599 0 0 1 568.4766 79.4053)" display="inline" fill="#FFFFFF" font-family="'century gothic'" font-size="32">Mr. S, a 48-year-old male, presents</text>
		
			<text transform="matrix(0.9599 0 0 1 549.8613 117.5537)" display="inline" fill="#FFFFFF" font-family="'century gothic'" font-size="32">with following complaints for 6 months</text>
		
			<text transform="matrix(0.9599 0 0 1 578.0977 543.7598)" display="inline" fill="#FFFFFF" font-family="'century gothic'" font-size="32">He also complains of night sweats</text>
		
			<text transform="matrix(0.9599 0 0 1 725.1855 581.9092)" display="inline" fill="#FFFFFF" font-family="'century gothic'" font-size="32">and mild fever</text>
	</g>
</g>
<g>
	<polygon fill="#6D9C87" points="334.491,473.045 223.62,433.448 223.62,409.691 144.427,409.691 144.427,433.448 33.558,473.045 
		33.558,544.318 334.491,544.318 	"/>
	<polygon fill="#CAA582" points="144.428,370.095 144.428,409.691 184.024,449.288 223.621,409.691 223.621,370.095 	"/>
	<polygon fill="#B78E6E" points="184.024,449.288 144.428,409.691 144.428,370.095 184.024,370.095 	"/>
	<path fill="#4D4D4B" d="M184.024,452.455c-0.811,0-1.62-0.309-2.241-0.928c-1.236-1.236-1.236-3.243,0-4.479l38.671-38.67v-54.124
		c0-1.748,1.416-3.165,3.167-3.165c1.75,0,3.167,1.417,3.167,3.165v55.438c0,0.84-0.333,1.644-0.927,2.237l-39.596,39.597
		C185.645,452.146,184.836,452.455,184.024,452.455"/>
	<path fill="#CAA582" d="M247.379,306.74h15.838c8.747,0,15.838-7.09,15.838-15.837v-15.839c0-4.372-3.544-7.92-7.918-7.92h-23.758
		V306.74z"/>
	<path fill="#CAA582" d="M120.67,306.74h-15.838c-8.748,0-15.838-7.09-15.838-15.837v-15.839c0-4.372,3.544-7.92,7.918-7.92h23.758
		V306.74z"/>
	<path fill="#4D4D4B" d="M123.837,309.908h-19.005c-10.482,0-19.007-8.525-19.007-19.007v-15.838
		c0-6.115,4.973-11.087,11.086-11.087h26.926V309.908z M96.912,270.312c-2.62,0-4.751,2.13-4.751,4.752v15.838
		c0,6.987,5.684,12.671,12.672,12.671h12.669v-33.261H96.912z"/>
	<path fill="#E4C8AD" d="M263.218,227.547c0-43.738-35.457-79.193-79.193-79.193c-43.739,0-79.193,35.455-79.193,79.193
		c-0.289,65.143,7.917,118.79,7.917,118.79c23.115,27.111,55.438,39.598,55.438,39.598h15.838h15.837
		c0,0,32.321-12.486,55.434-39.598C255.296,346.337,263.504,292.69,263.218,227.547"/>
	<path fill="#CAA582" d="M184.024,385.935h-15.837c0,0-32.323-12.486-55.438-39.598c0,0-8.205-53.646-7.917-118.789
		c0-43.738,35.454-79.193,79.192-79.193V385.935z"/>
	<path fill="#4D4D4B" d="M184.024,389.101h-15.837c-0.392,0-0.778-0.071-1.144-0.211c-1.35-0.523-33.336-13.087-56.703-40.497
		c-0.381-0.448-0.632-0.995-0.721-1.576c-0.083-0.538-8.24-54.64-7.956-119.284c0-45.398,36.948-82.345,82.361-82.345
		c1.75,0,3.167,1.417,3.167,3.166c0,1.75-1.417,3.17-3.167,3.17c-41.92,0-76.026,34.104-76.026,76.024
		c-0.262,59.617,6.703,110.164,7.753,117.419c20.657,23.84,48.86,36.069,53.05,37.798h15.223c1.75,0,3.167,1.419,3.167,3.17
		C187.191,387.683,185.774,389.101,184.024,389.101"/>
	<path fill="#6E614F" d="M231.54,132.516v-15.838c-15.813-0.551-30.789,2.825-39.559,5.342l-7.958-13.262
		c-45.012,16.532-87.111,41.198-87.111,95.033c0,53.833,11.349,102.948,11.349,102.948c0-48.392,4.489-87.11,4.489-87.11h7.917
		l15.84-31.678l47.515,15.84l47.516-15.84l15.837,31.678h7.921c0,0,4.713,38.718,4.713,87.11c0,0,11.125-49.115,11.125-102.948
		C271.136,173.323,254.338,149.477,231.54,132.516"/>
	<path fill="#4D4D4B" d="M215.702,294.071c-1.75,0-3.167-1.419-3.167-3.168v-7.919c0-1.75,1.417-3.167,3.167-3.167
		c1.75,0,3.167,1.417,3.167,3.167v7.919C218.868,292.651,217.451,294.071,215.702,294.071"/>
	<path fill="#4D4D4B" d="M152.347,294.071c-1.75,0-3.167-1.419-3.167-3.168v-7.919c0-1.75,1.417-3.167,3.167-3.167
		c1.75,0,3.167,1.417,3.167,3.167v7.919C155.514,292.651,154.097,294.071,152.347,294.071"/>
	<path fill="#4D4D4B" d="M191.943,365.345h-15.838c-1.75,0-3.168-1.42-3.168-3.168c0-1.75,1.419-3.169,3.168-3.169h15.838
		c1.75,0,3.167,1.419,3.167,3.169C195.11,363.925,193.693,365.345,191.943,365.345"/>
	<path fill="#4D4D4B" d="M176.105,325.747c-1.75,0-3.167-1.418-3.167-3.167v-38.284l-14.143-14.145l-30.599-3.826
		c-1.737-0.215-2.968-1.8-2.75-3.536c0.216-1.736,1.799-2.974,3.536-2.75l31.676,3.962c0.701,0.086,1.351,0.404,1.849,0.902
		l15.838,15.839c0.593,0.594,0.926,1.397,0.926,2.239v39.597C179.271,324.329,177.854,325.747,176.105,325.747"/>
	<path fill="#4D4D4B" d="M199.862,278.231c-0.811,0-1.62-0.31-2.24-0.929c-1.237-1.234-1.237-3.241,0-4.478l7.92-7.92
		c0.498-0.497,1.149-0.816,1.847-0.902l31.677-3.962c1.734-0.223,3.321,1.015,3.536,2.751c0.218,1.734-1.013,3.319-2.749,3.536
		l-30.598,3.824l-7.151,7.151C201.483,277.922,200.675,278.231,199.862,278.231"/>
	<path fill="#4D4D4B" d="M30.391,544.318v-71.271c0-1.34,0.841-2.532,2.103-2.984l108.767-38.847v-21.524
		c0-1.748,1.417-3.168,3.167-3.168c1.75,0,3.167,1.42,3.167,3.168v23.757c0,1.341-0.84,2.532-2.102,2.982L36.725,475.278v69.04
		H30.391z"/>
	<path fill="#4D4D4B" d="M108.265,309.908c-1.458,0-2.75-1.003-3.085-2.454c-0.112-0.495-11.431-50.087-11.431-103.665
		c0-57.832,47.663-82.755,89.187-98.005c1.642-0.604,3.463,0.238,4.065,1.88c0.604,1.644-0.238,3.464-1.881,4.067
		c-26.997,9.915-45.865,20.361-59.375,32.877c-17.267,15.995-25.662,35.354-25.662,59.18c0,26.552,2.819,52.119,5.637,71.043
		c1.227-32.302,3.854-55.271,3.888-55.57c0.183-1.597,1.537-2.802,3.146-2.802h5.96l14.964-29.927
		c0.704-1.408,2.338-2.085,3.834-1.588l46.515,15.505l46.513-15.505c1.66-0.553,3.454,0.345,4.008,2.004
		c0.552,1.659-0.343,3.453-2.005,4.006l-47.515,15.84c-0.651,0.215-1.354,0.215-2.003,0l-44.909-14.97l-14.612,29.22
		c-0.536,1.071-1.633,1.75-2.833,1.75h-5.072c-1.004,9.733-4.166,43.651-4.166,83.945c0,1.613-1.209,2.967-2.81,3.148
		C108.505,309.902,108.384,309.908,108.265,309.908"/>
	<path fill="#4D4D4B" d="M180.856,544.318v-71.271c0-0.841,0.333-1.647,0.928-2.241l38.669-38.67v-22.444
		c0-1.748,1.419-3.168,3.167-3.168c1.75,0,3.168,1.42,3.168,3.168v23.757c0,0.842-0.332,1.647-0.929,2.241l-38.667,38.668v69.961
		H180.856z"/>
	<polygon fill="#6E614F" points="231.54,346.337 136.509,346.337 160.266,322.578 207.782,322.578 	"/>
	<path fill="#4D4D4B" d="M207.782,349.505h-47.517c-1.749,0-3.167-1.42-3.167-3.168s1.418-3.167,3.167-3.167h47.517
		c1.75,0,3.167,1.419,3.167,3.167S209.532,349.505,207.782,349.505"/>
	<path fill="#4D4D4B" d="M136.508,349.505c-0.811,0-1.622-0.309-2.24-0.929c-1.238-1.235-1.238-3.243,0-4.479l23.759-23.759
		c0.593-0.593,1.4-0.929,2.24-0.929h31.676c1.75,0,3.169,1.42,3.169,3.17c0,1.749-1.418,3.166-3.169,3.166h-30.364l-22.83,22.83
		C138.129,349.196,137.32,349.505,136.508,349.505"/>
</g>
<g id="guide">
</g>
</svg>
