<?xml version="1.0" encoding="utf-8"?>
<!-- Generator: Adobe Illustrator 16.0.0, SVG Export Plug-In . SVG Version: 6.00 Build 0)  -->
<!DOCTYPE svg PUBLIC "-//W3C//DTD SVG 1.1//EN" "http://www.w3.org/Graphics/SVG/1.1/DTD/svg11.dtd">
<svg version="1.1" xmlns="http://www.w3.org/2000/svg" xmlns:xlink="http://www.w3.org/1999/xlink" x="0px" y="0px"  viewBox="0 0 1321 862"  xml:space="preserve" >
<g id="Layer_1">
</g>
<g id="Layer_2">
	<g id="F22_x5F_A">
		<text transform="matrix(1 0 0 1 14.8325 34.8018)" fill="#FFFFFF" font-family="century gothic" font-size="27.5778">Non-hematological AEs occurring in ≥5% of patients at any grade or ≥1% of patients at grade</text>
		<text transform="matrix(1 0 0 1 14.8325 67.895)" fill="#FFFFFF" font-family="century gothic" font-size="27.5778">3/4 (safety population; n = 1089)</text>
		<g>
			<rect x="348.145" y="90.626" fill="#4A286E" width="239.507" height="97.994"/>
			<rect x="348.145" y="90.626" fill="none" stroke="#FFFFFF" stroke-miterlimit="10" width="239.507" height="97.994"/>
			<rect x="348.145" y="188.62" fill="#E5E5E5" width="239.507" height="64.939"/>
			<rect x="348.145" y="188.62" fill="none" stroke="#FFFFFF" stroke-miterlimit="10" width="239.507" height="64.939"/>
			<rect x="348.145" y="253.557" fill="#E5E5E5" width="239.507" height="64.939"/>
			<rect x="348.145" y="253.557" fill="none" stroke="#FFFFFF" stroke-miterlimit="10" width="239.507" height="64.939"/>
			<rect x="348.145" y="318.496" fill="#E5E5E5" width="239.507" height="64.938"/>
			<rect x="348.145" y="318.496" fill="none" stroke="#FFFFFF" stroke-miterlimit="10" width="239.507" height="64.938"/>
			<rect x="348.145" y="383.434" fill="#E5E5E5" width="239.507" height="64.939"/>
			<rect x="348.145" y="383.434" fill="none" stroke="#FFFFFF" stroke-miterlimit="10" width="239.507" height="64.939"/>
			<rect x="348.145" y="448.371" fill="#E5E5E5" width="239.507" height="64.939"/>
			<rect x="348.145" y="448.371" fill="none" stroke="#FFFFFF" stroke-miterlimit="10" width="239.507" height="64.939"/>
			<rect x="348.145" y="513.311" fill="#E5E5E5" width="239.507" height="64.938"/>
			<rect x="348.145" y="513.311" fill="none" stroke="#FFFFFF" stroke-miterlimit="10" width="239.507" height="64.938"/>
			<rect x="348.145" y="578.246" fill="#E5E5E5" width="239.507" height="64.939"/>
			<rect x="348.145" y="578.246" fill="none" stroke="#FFFFFF" stroke-miterlimit="10" width="239.507" height="64.939"/>
			<rect x="348.145" y="643.186" fill="#E5E5E5" width="239.507" height="64.938"/>
			<rect x="348.145" y="643.186" fill="none" stroke="#FFFFFF" stroke-miterlimit="10" width="239.507" height="64.938"/>
			<rect x="348.145" y="708.123" fill="#E5E5E5" width="239.507" height="64.939"/>
			<rect x="348.145" y="708.123" fill="none" stroke="#FFFFFF" stroke-miterlimit="10" width="239.507" height="64.939"/>
			<rect x="348.145" y="773.059" fill="#E5E5E5" width="239.507" height="64.941"/>
			<rect x="348.145" y="773.059" fill="none" stroke="#FFFFFF" stroke-miterlimit="10" width="239.507" height="64.941"/>
			<rect x="587.651" y="90.626" fill="#4A286E" width="239.507" height="97.994"/>
			<rect x="587.651" y="90.626" fill="none" stroke="#FFFFFF" stroke-miterlimit="10" width="239.507" height="97.994"/>
			<rect x="587.651" y="188.62" fill="#E5E5E5" width="239.507" height="64.939"/>
			<rect x="587.651" y="188.62" fill="none" stroke="#FFFFFF" stroke-miterlimit="10" width="239.507" height="64.939"/>
			<rect x="587.651" y="253.557" fill="#E5E5E5" width="239.507" height="64.939"/>
			<rect x="587.651" y="253.557" fill="none" stroke="#FFFFFF" stroke-miterlimit="10" width="239.507" height="64.939"/>
			<rect x="587.651" y="318.496" fill="#E5E5E5" width="239.507" height="64.938"/>
			<rect x="587.651" y="318.496" fill="none" stroke="#FFFFFF" stroke-miterlimit="10" width="239.507" height="64.938"/>
			<rect x="587.651" y="383.434" fill="#E5E5E5" width="239.507" height="64.939"/>
			<rect x="587.651" y="383.434" fill="none" stroke="#FFFFFF" stroke-miterlimit="10" width="239.507" height="64.939"/>
			<rect x="587.651" y="448.371" fill="#E5E5E5" width="239.507" height="64.939"/>
			<rect x="587.651" y="448.371" fill="none" stroke="#FFFFFF" stroke-miterlimit="10" width="239.507" height="64.939"/>
			<rect x="587.651" y="513.311" fill="#E5E5E5" width="239.507" height="64.938"/>
			<rect x="587.651" y="513.311" fill="none" stroke="#FFFFFF" stroke-miterlimit="10" width="239.507" height="64.938"/>
			<rect x="587.651" y="578.246" fill="#E5E5E5" width="239.507" height="64.939"/>
			<rect x="587.651" y="578.246" fill="none" stroke="#FFFFFF" stroke-miterlimit="10" width="239.507" height="64.939"/>
			<rect x="587.651" y="643.186" fill="#E5E5E5" width="239.507" height="64.938"/>
			<rect x="587.651" y="643.186" fill="none" stroke="#FFFFFF" stroke-miterlimit="10" width="239.507" height="64.938"/>
			<rect x="587.651" y="708.123" fill="#E5E5E5" width="239.507" height="64.939"/>
			<rect x="587.651" y="708.123" fill="none" stroke="#FFFFFF" stroke-miterlimit="10" width="239.507" height="64.939"/>
			<rect x="587.651" y="773.059" fill="#E5E5E5" width="239.507" height="64.941"/>
			<rect x="587.651" y="773.059" fill="none" stroke="#FFFFFF" stroke-miterlimit="10" width="239.507" height="64.941"/>
			<rect x="827.158" y="90.626" fill="#4A286E" width="239.506" height="97.994"/>
			<rect x="827.158" y="90.626" fill="none" stroke="#FFFFFF" stroke-miterlimit="10" width="239.506" height="97.994"/>
			<rect x="827.158" y="188.62" fill="#E5E5E5" width="239.506" height="64.939"/>
			<rect x="827.158" y="188.62" fill="none" stroke="#FFFFFF" stroke-miterlimit="10" width="239.506" height="64.939"/>
			<rect x="827.158" y="253.557" fill="#E5E5E5" width="239.506" height="64.939"/>
			<rect x="827.158" y="253.557" fill="none" stroke="#FFFFFF" stroke-miterlimit="10" width="239.506" height="64.939"/>
			<rect x="827.158" y="318.496" fill="#E5E5E5" width="239.506" height="64.938"/>
			<rect x="827.158" y="318.496" fill="none" stroke="#FFFFFF" stroke-miterlimit="10" width="239.506" height="64.938"/>
			<rect x="827.158" y="383.434" fill="#E5E5E5" width="239.506" height="64.939"/>
			<rect x="827.158" y="383.434" fill="none" stroke="#FFFFFF" stroke-miterlimit="10" width="239.506" height="64.939"/>
			<rect x="827.158" y="448.371" fill="#E5E5E5" width="239.506" height="64.939"/>
			<rect x="827.158" y="448.371" fill="none" stroke="#FFFFFF" stroke-miterlimit="10" width="239.506" height="64.939"/>
			<rect x="827.158" y="513.311" fill="#E5E5E5" width="239.506" height="64.938"/>
			<rect x="827.158" y="513.311" fill="none" stroke="#FFFFFF" stroke-miterlimit="10" width="239.506" height="64.938"/>
			<rect x="827.158" y="578.246" fill="#E5E5E5" width="239.506" height="64.939"/>
			<rect x="827.158" y="578.246" fill="none" stroke="#FFFFFF" stroke-miterlimit="10" width="239.506" height="64.939"/>
			<rect x="827.158" y="643.186" fill="#E5E5E5" width="239.506" height="64.938"/>
			<rect x="827.158" y="643.186" fill="none" stroke="#FFFFFF" stroke-miterlimit="10" width="239.506" height="64.938"/>
			<rect x="827.158" y="708.123" fill="#E5E5E5" width="239.506" height="64.939"/>
			<rect x="827.158" y="708.123" fill="none" stroke="#FFFFFF" stroke-miterlimit="10" width="239.506" height="64.939"/>
			<rect x="827.158" y="773.059" fill="#E5E5E5" width="239.506" height="64.941"/>
			<rect x="827.158" y="773.059" fill="none" stroke="#FFFFFF" stroke-miterlimit="10" width="239.506" height="64.941"/>
			<rect x="1066.664" y="90.626" fill="#4A286E" width="239.504" height="97.994"/>
			<rect x="1066.664" y="90.626" fill="none" stroke="#FFFFFF" stroke-miterlimit="10" width="239.504" height="97.994"/>
			<rect x="1066.664" y="188.62" fill="#E5E5E5" width="239.504" height="64.939"/>
			<rect x="1066.664" y="188.62" fill="none" stroke="#FFFFFF" stroke-miterlimit="10" width="239.504" height="64.939"/>
			<rect x="1066.664" y="253.557" fill="#E5E5E5" width="239.504" height="64.939"/>
			<rect x="1066.664" y="253.557" fill="none" stroke="#FFFFFF" stroke-miterlimit="10" width="239.504" height="64.939"/>
			<rect x="1066.664" y="318.496" fill="#E5E5E5" width="239.504" height="64.938"/>
			<rect x="1066.664" y="318.496" fill="none" stroke="#FFFFFF" stroke-miterlimit="10" width="239.504" height="64.938"/>
			<rect x="1066.664" y="383.434" fill="#E5E5E5" width="239.504" height="64.939"/>
			<rect x="1066.664" y="383.434" fill="none" stroke="#FFFFFF" stroke-miterlimit="10" width="239.504" height="64.939"/>
			<rect x="1066.664" y="448.371" fill="#E5E5E5" width="239.504" height="64.939"/>
			<rect x="1066.664" y="448.371" fill="none" stroke="#FFFFFF" stroke-miterlimit="10" width="239.504" height="64.939"/>
			<rect x="1066.664" y="513.311" fill="#E5E5E5" width="239.504" height="64.938"/>
			<rect x="1066.664" y="513.311" fill="none" stroke="#FFFFFF" stroke-miterlimit="10" width="239.504" height="64.938"/>
			<rect x="1066.664" y="578.246" fill="#E5E5E5" width="239.504" height="64.939"/>
			<rect x="1066.664" y="578.246" fill="none" stroke="#FFFFFF" stroke-miterlimit="10" width="239.504" height="64.939"/>
			<rect x="1066.664" y="643.186" fill="#E5E5E5" width="239.504" height="64.938"/>
			<rect x="1066.664" y="643.186" fill="none" stroke="#FFFFFF" stroke-miterlimit="10" width="239.504" height="64.938"/>
			<rect x="1066.664" y="708.123" fill="#E5E5E5" width="239.504" height="64.939"/>
			<rect x="1066.664" y="708.123" fill="none" stroke="#FFFFFF" stroke-miterlimit="10" width="239.504" height="64.939"/>
			<rect x="1066.664" y="773.059" fill="#E5E5E5" width="239.504" height="64.941"/>
			<rect x="1066.664" y="773.059" fill="none" stroke="#FFFFFF" stroke-miterlimit="10" width="239.504" height="64.941"/>
			<rect x="23.471" y="90.626" fill="#4A286E" width="324.673" height="97.994"/>
			<rect x="23.471" y="90.626" fill="none" stroke="#FFFFFF" stroke-miterlimit="10" width="324.673" height="97.994"/>
			<rect x="22.833" y="188.62" fill="#E5E5E5" width="324.673" height="64.939"/>
			<rect x="22.833" y="188.62" fill="none" stroke="#FFFFFF" stroke-miterlimit="10" width="324.673" height="64.939"/>
		</g>
		<text transform="matrix(1 0 0 1 427.043 129.2065)" fill="#FFFFFF" font-family="century gothic" font-size="32.1741">Total </text>
		<text transform="matrix(1 0 0 1 378.46 167.8145)" fill="#FFFFFF" font-family="century gothic" font-size="32.1741">(all grades)</text>
		<text transform="matrix(1 0 0 1 70.2324 153.8525)" fill="#FFFFFF" font-family="century gothic" font-size="32.1741">Patients, n (%)</text>
		<text transform="matrix(1 0 0 1 288.9893 143.1523)" fill="#FFFFFF" font-family="century gothic" font-size="18.7575">a</text>
		<text transform="matrix(1 0 0 1 47.0493 230.0972)" font-family="century gothic" font-size="22.9815">Rash</text>
		<text transform="matrix(1 0 0 1 414.8457 227.4316)" font-family="century gothic" font-size="22.9815">233 (21.4)</text>
		<g>
			<rect x="22.833" y="253.557" fill="#E5E5E5" width="324.673" height="64.939"/>
			<rect x="22.833" y="253.557" fill="none" stroke="#FFFFFF" stroke-miterlimit="10" width="324.673" height="64.939"/>
		</g>
		<text transform="matrix(1 0 0 1 47.0493 295.0347)" font-family="century gothic" font-size="22.9815">Pruritus</text>
		<text transform="matrix(1 0 0 1 414.8457 292.3696)" font-family="century gothic" font-size="22.9815">180 (16.5)</text>
		<g>
			<rect x="22.833" y="318.496" fill="#E5E5E5" width="324.673" height="64.938"/>
			<rect x="22.833" y="318.496" fill="none" stroke="#FFFFFF" stroke-miterlimit="10" width="324.673" height="64.938"/>
		</g>
		<text transform="matrix(1 0 0 1 47.0493 359.9751)" font-family="century gothic" font-size="22.9815">Headache</text>
		<text transform="matrix(1 0 0 1 414.8457 357.3071)" font-family="century gothic" font-size="22.9815">166 (15.2)</text>
		<g>
			<rect x="22.833" y="383.434" fill="#E5E5E5" width="324.673" height="64.939"/>
			<rect x="22.833" y="383.434" fill="none" stroke="#FFFFFF" stroke-miterlimit="10" width="324.673" height="64.939"/>
		</g>
		<text transform="matrix(1 0 0 1 47.0493 424.9082)" font-family="century gothic" font-size="22.9815">Abdominal pain</text>
		<text transform="matrix(1 0 0 1 414.8457 422.2461)" font-family="century gothic" font-size="22.9815">160 (14.7)</text>
		<g>
			<rect x="22.833" y="448.371" fill="#E5E5E5" width="324.673" height="64.939"/>
			<rect x="22.833" y="448.371" fill="none" stroke="#FFFFFF" stroke-miterlimit="10" width="324.673" height="64.939"/>
		</g>
		<text transform="matrix(1 0 0 1 47.0493 489.8496)" font-family="century gothic" font-size="22.9815">Fatigue</text>
		<g>
			<rect x="22.833" y="513.311" fill="#E5E5E5" width="324.673" height="64.938"/>
			<rect x="22.833" y="513.311" fill="none" stroke="#FFFFFF" stroke-miterlimit="10" width="324.673" height="64.938"/>
		</g>
		<text transform="matrix(1 0 0 1 47.0493 554.7871)" font-family="century gothic" font-size="22.9815">Nausea</text>
		<text transform="matrix(1 0 0 1 414.8457 552.1191)" font-family="century gothic" font-size="22.9815">123 (11.3)</text>
		<g>
			<rect x="22.833" y="578.246" fill="#E5E5E5" width="324.673" height="64.939"/>
			<rect x="22.833" y="578.246" fill="none" stroke="#FFFFFF" stroke-miterlimit="10" width="324.673" height="64.939"/>
		</g>
		<text transform="matrix(1 0 0 1 47.0493 619.7246)" font-family="century gothic" font-size="22.9815">Alopecia</text>
		<text transform="matrix(1 0 0 1 414.8457 617.0605)" font-family="century gothic" font-size="22.9815">115 (10.6)</text>
		<g>
			<rect x="22.833" y="643.186" fill="#E5E5E5" width="324.673" height="64.938"/>
			<rect x="22.833" y="643.186" fill="none" stroke="#FFFFFF" stroke-miterlimit="10" width="324.673" height="64.938"/>
		</g>
		<text transform="matrix(1 0 0 1 47.0493 684.6621)" font-family="century gothic" font-size="22.9815">Nasopharyngitis</text>
		<text transform="matrix(1 0 0 1 414.8457 681.9961)" font-family="century gothic" font-size="22.9815">113 (10.4)</text>
		<g>
			<rect x="22.833" y="708.123" fill="#E5E5E5" width="324.673" height="64.939"/>
			<rect x="22.833" y="708.123" fill="none" stroke="#FFFFFF" stroke-miterlimit="10" width="324.673" height="64.939"/>
		</g>
		<text transform="matrix(1 0 0 1 47.0493 749.6016)" font-family="century gothic" font-size="22.9815">Myalgia</text>
		<text transform="matrix(1 0 0 1 427.5781 746.9355)" font-family="century gothic" font-size="22.9815">99 (9.1)</text>
		<g>
			<rect x="22.833" y="773.059" fill="#E5E5E5" width="324.673" height="64.941"/>
			<rect x="22.833" y="773.059" fill="none" stroke="#FFFFFF" stroke-miterlimit="10" width="324.673" height="64.941"/>
		</g>
		<text transform="matrix(1 0 0 1 427.5781 811.877)" font-family="century gothic" font-size="22.9815">97 (8.9)</text>
		<text transform="matrix(1 0 0 1 643.6992 148.5098)" fill="#FFFFFF" font-family="century gothic" font-size="32.1741">Grade 2</text>
		<text transform="matrix(1 0 0 1 667.0859 227.0005)" font-family="century gothic" font-size="22.9815">53 (4.9)</text>
		<text transform="matrix(1 0 0 1 667.0859 291.9468)" font-family="century gothic" font-size="22.9815">48 (4.4)</text>
		<text transform="matrix(1 0 0 1 667.0859 356.8921)" font-family="century gothic" font-size="22.9815">43 (3.9)</text>
		<text transform="matrix(1 0 0 1 667.0859 421.8379)" font-family="century gothic" font-size="22.9815">54 (5.0)</text>
		<text transform="matrix(1 0 0 1 667.0859 551.7051)" font-family="century gothic" font-size="22.9815">37 (3.4)</text>
		<text transform="matrix(1 0 0 1 667.0859 616.6523)" font-family="century gothic" font-size="22.9815">15 (1.4)</text>
		<text transform="matrix(1 0 0 1 667.0859 681.5977)" font-family="century gothic" font-size="22.9815">28 (2.6)</text>
		<text transform="matrix(1 0 0 1 667.0859 746.543)" font-family="century gothic" font-size="22.9815">20 (1.8)</text>
		<text transform="matrix(1 0 0 1 667.0859 811.4902)" font-family="century gothic" font-size="22.9815">30 (2.8)</text>
		<text transform="matrix(1 0 0 1 883.2031 148.5098)" fill="#FFFFFF" font-family="century gothic" font-size="32.1741">Grade 3</text>
		<text transform="matrix(1 0 0 1 912.959 227.0005)" font-family="century gothic" font-size="22.9815">4 (0.4)</text>
		<text transform="matrix(1 0 0 1 912.959 291.9468)" font-family="century gothic" font-size="22.9815">3 (0.3)</text>
		<text transform="matrix(1 0 0 1 912.959 356.8921)" font-family="century gothic" font-size="22.9815">8 (0.7)</text>
		<text transform="matrix(1 0 0 1 912.959 421.8379)" font-family="century gothic" font-size="22.9815">8 (0.7)</text>
		<text transform="matrix(1 0 0 1 912.959 487.2188)" font-family="century gothic" font-size="22.9815">7 (0.6)</text>
		<text transform="matrix(1 0 0 1 912.959 551.7305)" font-family="century gothic" font-size="22.9815">5 (0.5)</text>
		<text transform="matrix(1 0 0 1 912.959 616.6738)" font-family="century gothic" font-size="22.9815">1 (0.1)</text>
		<text transform="matrix(1 0 0 1 940.5371 681.623)" font-family="century gothic" font-size="22.9815">0</text>
		<text transform="matrix(1 0 0 1 912.959 746.5684)" font-family="century gothic" font-size="22.9815">3 (0.3)</text>
		<text transform="matrix(1 0 0 1 912.959 811.5117)" font-family="century gothic" font-size="22.9815">2 (0.2)</text>
		<text transform="matrix(1 0 0 1 1122.7109 148.5098)" fill="#FFFFFF" font-family="century gothic" font-size="32.1741">Grade 3</text>
		<text transform="matrix(1 0 0 1 1180.0469 227.0005)" font-family="century gothic" font-size="22.9815">0</text>
		<text transform="matrix(1 0 0 1 1180.0469 291.9468)" font-family="century gothic" font-size="22.9815">0</text>
		<text transform="matrix(1 0 0 1 1180.0469 356.8921)" font-family="century gothic" font-size="22.9815">0</text>
		<text transform="matrix(1 0 0 1 1180.0469 421.8379)" font-family="century gothic" font-size="22.9815">0</text>
		<text transform="matrix(1 0 0 1 1180.0469 551.7051)" font-family="century gothic" font-size="22.9815">0</text>
		<text transform="matrix(1 0 0 1 1180.0469 616.6523)" font-family="century gothic" font-size="22.9815">0</text>
		<text transform="matrix(1 0 0 1 1180.0469 681.5977)" font-family="century gothic" font-size="22.9815">0</text>
		<text transform="matrix(1 0 0 1 1180.0469 746.543)" font-family="century gothic" font-size="22.9815">0</text>
		<text transform="matrix(1 0 0 1 1180.0469 811.4902)" font-family="century gothic" font-size="22.9815">0</text>
		<text transform="matrix(1 0 0 1 47.0596 814.5918)" font-family="century gothic" font-size="22.9815">Arthralgia</text>
		<text transform="matrix(1 0 0 1 414.8555 487.2441)" font-family="century gothic" font-size="22.9815">151 (13.9)</text>
		<text transform="matrix(1 0 0 1 667.0986 487.2441)" font-family="century gothic" font-size="22.9815">45 (4.1)</text>
		<text transform="matrix(1 0 0 1 1180.0703 487.2441)" font-family="century gothic" font-size="22.9815">0</text>
	</g>
</g>
</svg>
