<?xml version="1.0" encoding="utf-8"?>
<!-- Generator: Adobe Illustrator 16.0.0, SVG Export Plug-In . SVG Version: 6.00 Build 0)  -->
<!DOCTYPE svg PUBLIC "-//W3C//DTD SVG 1.1//EN" "http://www.w3.org/Graphics/SVG/1.1/DTD/svg11.dtd">
<svg version="1.1" id="Layer_1" xmlns="http://www.w3.org/2000/svg" xmlns:xlink="http://www.w3.org/1999/xlink" x="0px" y="0px"
	 width="1256px" height="800px" viewBox="0 0 1256 800" enable-background="new 0 0 1256 800" xml:space="preserve">
<g>
	<g>
		<path fill="#E58F29" d="M1039.329,337.54h-875.96c-11.019,0-19.948-8.931-19.948-19.947v-87.196
			c0-11.018,8.929-19.946,19.948-19.946h875.96c11.017,0,19.948,8.928,19.948,19.946v87.196
			C1059.277,328.609,1050.346,337.54,1039.329,337.54"/>
		<path fill="#E58F29" d="M1082.969,533.92h-875.96c-11.019,0-19.948-8.933-19.948-19.949v-87.197
			c0-11.016,8.929-19.945,19.948-19.945h875.96c11.018,0,19.949,8.93,19.949,19.945v87.197
			C1102.918,524.987,1093.986,533.92,1082.969,533.92"/>
		<path fill="#E58F29" d="M1148.43,732.289H272.468c-11.018,0-19.948-8.931-19.948-19.947v-87.195
			c0-11.018,8.931-19.946,19.948-19.946h875.962c11.017,0,19.947,8.929,19.947,19.946v87.195
			C1168.377,723.358,1159.446,732.289,1148.43,732.289"/>
		<path fill="#E58F29" d="M995.689,141.162H119.727c-11.016,0-19.946-8.932-19.946-19.949V34.018
			c0-11.017,8.93-19.946,19.946-19.946h875.962c11.018,0,19.948,8.929,19.948,19.946v87.196
			C1015.638,132.23,1006.707,141.162,995.689,141.162"/>
	</g>
	<text transform="matrix(1 0 0 1 138.2891 87.25)"><tspan x="0" y="0" fill="#FFFFFF" font-family="'century gothic'" font-size="30.5286">Mr. S is diagnosed with chronic-p</tspan><tspan x="484.179" y="0" fill="#FFFFFF" font-family="'century gothic'" font-size="30.5286">h</tspan><tspan x="502.767" y="0" fill="#FFFFFF" font-family="'century gothic'" font-size="30.5286">ase CML</tspan></text>
	<text transform="matrix(1 0 0 1 190.4932 247.4033)" fill="#FFFFFF" font-family="'century gothic'" font-size="30.5286">Based on the histopathologic findings in the </text>
	<text transform="matrix(1 0 0 1 190.4932 284.0391)" fill="#FFFFFF" font-family="'century gothic'" font-size="30.5286">peripheral blood and the Philadelphia (Ph) </text>
	<text transform="matrix(1 0 0 1 190.4932 320.6719)" fill="#FFFFFF" font-family="'century gothic'" font-size="30.5286">chromosome in bone marrow cells</text>
	<text transform="matrix(1 0 0 1 238.2998 461.5313)" fill="#FFFFFF" font-family="'century gothic'" font-size="30.5286">CML can be in chronic phase or accelerated </text>
	<text transform="matrix(1 0 0 1 238.2998 498.165)" fill="#FFFFFF" font-family="'century gothic'" font-size="30.5286">phase or blast phase</text>
	<text transform="matrix(1 0 0 1 546.791 488)" fill="#FFFFFF" font-family="'century gothic'" font-size="17.7982">1</text>
	<text transform="matrix(1 0 0 1 299.2051 661.707)"><tspan x="0" y="0" fill="#FFFFFF" font-family="'century gothic'" font-size="30.5286">Around 85% of patient</tspan><tspan x="329.211" y="0" fill="#FFFFFF" font-family="'century gothic'" font-size="30.5286">s</tspan><tspan x="341.03" y="0" fill="#FFFFFF" font-family="'century gothic'" font-size="30.5286"> diagnosed with CML are </tspan></text>
	<text transform="matrix(1 0 0 1 50.6162 784.1299)" fill="#FFFFFF" font-family="'century gothic'" font-size="17.9616">1. Redaelli A, et al. Clinical and epidemiologic burden of chronic myelogenous leukemia. Expert Rev Anticancer Ther. 2004;4(1):</text>
	<text transform="matrix(1 0 0 1 1158.8223 784.1299)" fill="#FFFFFF" font-family="'century gothic'" font-size="17.9616">85-96.</text>
	<text transform="matrix(1 0 0 1 299.2051 698.3418)" fill="#FFFFFF" font-family="'century gothic'" font-size="30.5286">in chronic phase</text>
	<text transform="matrix(1 0 0 1 544.8506 688.1768)" fill="#FFFFFF" font-family="'century gothic'" font-size="17.7982">1</text>
	<g>
		<polygon fill="#E5E5E5" points="1011.222,176.586 1011.222,135.66 961.472,135.66 961.472,176.586 934.774,176.586 
			960.395,211.151 986.013,245.713 1011.635,211.151 1037.253,176.586 		"/>
		<polygon fill="#E5E5E5" points="1054.861,372.966 1054.861,332.039 1005.112,332.039 1005.112,372.966 978.412,372.966 
			1004.033,407.53 1029.653,442.092 1055.271,407.53 1080.893,372.966 		"/>
		<polygon fill="#E5E5E5" points="1098.501,569.344 1098.501,528.417 1048.752,528.417 1048.752,569.344 1022.053,569.344 
			1047.672,603.908 1073.291,638.47 1098.912,603.908 1124.533,569.344 		"/>
	</g>
</g>
</svg>
